<?xml version="1.0" encoding="UTF-8"?>
<svg version="1.1" xmlns="http://www.w3.org/2000/svg" width="983" height="254">
<path d="M0 0 C20.70195553 17.9293722 35.07068969 40.14277612 38.25 67.6875 C38.65381048 74.41739729 38.62914634 81.16658229 38.65625 87.90625 C38.66473213 89.34012306 38.66473213 89.34012306 38.67338562 90.80296326 C38.70318245 95.8548184 38.72176296 100.90656193 38.73046875 105.95849609 C38.74145606 111.1431861 38.78960064 116.32683052 38.84641266 121.51119232 C38.88383892 125.53150358 38.89408539 129.55156607 38.8971405 133.57203674 C38.9031483 135.48244486 38.91905053 137.39285101 38.94551086 139.30308533 C39.10103147 151.38505513 38.59526765 161.08794034 30.47644043 170.81164551 C22.33359404 178.79245554 12.32667213 180.19758122 1.33113098 180.14068604 C-0.15815834 180.12027069 -1.64744156 180.09940691 -3.13671875 180.078125 C-4.69040695 180.07064738 -6.24410471 180.06496166 -7.79780579 180.06097412 C-11.85036109 180.04583711 -15.9023259 180.00666171 -19.95465088 179.9621582 C-24.10445167 179.92094481 -28.25434961 179.90290795 -32.40429688 179.8828125 C-40.51979962 179.84015296 -48.63482598 179.77205054 -56.75 179.6875 C-56.84329951 172.071848 -56.91406551 164.45625638 -56.95724869 156.84016037 C-56.97799045 153.30241237 -57.0060566 149.76505966 -57.05175781 146.22753906 C-57.10414236 142.14644912 -57.12305571 138.06576452 -57.140625 133.984375 C-57.16127014 132.73388367 -57.18191528 131.48339233 -57.20318604 130.19500732 C-57.20614577 118.4359623 -54.70721879 108.53503697 -46.75 99.6875 C-46.18667969 99.02105469 -45.62335938 98.35460937 -45.04296875 97.66796875 C-36.69082169 88.47181525 -25.76820764 83.96121496 -13.75 81.6875 C-13.75 80.3675 -13.75 79.0475 -13.75 77.6875 C-14.77738281 77.40777344 -15.80476562 77.12804687 -16.86328125 76.83984375 C-33.41193171 72.13597396 -45.64546498 64.32851004 -54.20703125 49.0078125 C-56.80003803 43.4279245 -58.32619556 37.66570994 -59.75 31.6875 C-61.07 31.6875 -62.39 31.6875 -63.75 31.6875 C-63.89695312 32.41453125 -64.04390625 33.1415625 -64.1953125 33.890625 C-67.60034791 49.15457682 -74.23945615 60.5665078 -87.35546875 69.21875 C-100.82998991 77.48370915 -117.23880226 75.97526517 -132.46533203 75.89331055 C-136.03294883 75.87482932 -139.60030864 75.87280282 -143.16796875 75.87304688 C-145.42968976 75.86813896 -147.69140902 75.86231384 -149.953125 75.85546875 C-151.02274475 75.85435593 -152.0923645 75.8532431 -153.19439697 75.85209656 C-154.66293121 75.84252678 -154.66293121 75.84252678 -156.16113281 75.83276367 C-157.02571106 75.82895187 -157.89028931 75.82514008 -158.78106689 75.82121277 C-160.75 75.6875 -160.75 75.6875 -161.75 74.6875 C-161.96320173 48.33576675 -148.5381332 25.20830477 -131 6.5625 C-118.43245408 -5.55973918 -101.63257531 -14.1947987 -84.75 -18.3125 C-83.85925781 -18.53679688 -82.96851562 -18.76109375 -82.05078125 -18.9921875 C-53.97365881 -24.83991913 -22.46863175 -17.86623777 0 0 Z " fill="#5F6FFD" transform="translate(205.75,48.3125)"/>
<path d="M0 0 C1.06233353 -0.00960754 2.12466705 -0.01921509 3.2191925 -0.02911377 C4.37944443 -0.03336365 5.53969635 -0.03761353 6.73510742 -0.04199219 C7.92601486 -0.04769226 9.1169223 -0.05339233 10.34391785 -0.05926514 C12.87689317 -0.06873919 15.40988096 -0.0752586 17.94287109 -0.07910156 C21.78595251 -0.08873033 25.62848158 -0.11969925 29.47143555 -0.15136719 C31.934323 -0.15790475 34.39721428 -0.16315226 36.86010742 -0.16699219 C37.9980928 -0.17933899 39.13607819 -0.19168579 40.30854797 -0.20440674 C55.21340438 -0.16363131 67.01215975 3.81528473 77.95385742 13.99316406 C86.52996853 22.95689601 90.16946349 33.66793635 90.14160156 45.98291016 C90.14148827 47.66397354 90.14148827 47.66397354 90.14137268 49.3789978 C90.1362114 50.57296173 90.13105011 51.76692566 90.12573242 52.99707031 C90.12431747 54.23155914 90.12290253 55.46604797 90.1214447 56.73794556 C90.11585889 60.67069956 90.10330892 64.60339609 90.09057617 68.53613281 C90.08499529 71.2067049 90.08099676 73.87727644 90.0769043 76.54785156 C90.0658941 83.0856315 90.04917002 89.62337805 90.02807617 96.16113281 C81.05668545 96.23087299 72.08538914 96.28406536 63.11378574 96.31656933 C58.9471785 96.33217549 54.78075775 96.35332054 50.61425781 96.38745117 C46.58772403 96.42022603 42.5613688 96.43802374 38.53471184 96.44576454 C37.0042331 96.45127572 35.4737633 96.46203716 33.94336128 96.47832298 C22.05602395 96.59970571 12.33414313 95.92244917 3.24682617 87.51269531 C-6.03333463 77.87863008 -6.55657707 66.7695589 -6.39770508 54.02832031 C-6.39277104 52.49944487 -6.38947877 50.97056333 -6.38774109 49.44168091 C-6.38015671 46.2630026 -6.35975371 43.08478364 -6.32861328 39.90625 C-6.28870313 35.82505236 -6.27094437 31.74414964 -6.2613039 27.66277885 C-6.25136626 23.76375267 -6.23148875 19.86479865 -6.21020508 15.96582031 C-6.20680933 15.22112362 -6.20341358 14.47642693 -6.19991493 13.70916367 C-6.18839831 11.6173807 -6.16989539 9.52578894 -6.14892578 7.43408203 C-6.13908157 6.24370331 -6.12923737 5.05332458 -6.11909485 3.82687378 C-5.86796418 -0.72191118 -4.09347417 0.02977695 0 0 Z " fill="#5F6FFD" transform="translate(49.971923828125,131.8388671875)"/>
<path d="M0 0 C1.3931543 0.01885254 1.3931543 0.01885254 2.81445312 0.03808594 C18.6108595 0.32454927 30.79964755 3.44018953 43 14 C54.60161105 28.34538126 58.24482653 45.85276331 57 64 C55.19447434 77.72481614 51.31373734 89.60466736 42 100 C41.14728516 100.95712891 41.14728516 100.95712891 40.27734375 101.93359375 C31.01302339 111.74659823 17.6087932 117.07078776 4.15625 117.94921875 C3.4446875 117.96597656 2.733125 117.98273438 2 118 C1.1853125 118.02707031 0.370625 118.05414063 -0.46875 118.08203125 C-7.21462476 118.18625123 -13.95014603 117.86767221 -20.6875 117.5625 C-22.00572754 117.50376709 -22.00572754 117.50376709 -23.35058594 117.44384766 C-39.34031611 116.65968389 -39.34031611 116.65968389 -41 115 C-41.10071679 111.89201204 -41.13613934 108.80620454 -41.12939453 105.69775391 C-41.13114685 104.7204129 -41.13289917 103.7430719 -41.13470459 102.7361145 C-41.13912937 99.48291277 -41.13618067 96.22976485 -41.1328125 92.9765625 C-41.1334859 90.71747833 -41.13445623 88.45839423 -41.13571167 86.1993103 C-41.13718993 81.44943557 -41.13503201 76.69957959 -41.13037109 71.94970703 C-41.12470621 65.88281553 -41.1279313 59.81596858 -41.13394356 53.74907875 C-41.13757356 49.0751411 -41.13639885 44.40121383 -41.13381577 39.72727585 C-41.13315154 37.49233368 -41.13395719 35.25739054 -41.13629532 33.02244949 C-41.13885827 29.88033849 -41.13492893 26.73829727 -41.12939453 23.59619141 C-41.13141876 22.68353516 -41.13344299 21.77087891 -41.13552856 20.83056641 C-41.09302773 7.68885238 -41.09302773 7.68885238 -40 2 C-29.58078708 -3.20960646 -11.3328672 -0.16802674 0 0 Z M-13 25 C-13 46.78 -13 68.56 -13 91 C-5.77149111 93.40950296 4.82900353 90.95629684 11.625 87.8125 C20.01961409 82.98137142 24.17852233 75.54747378 26.72265625 66.40234375 C28.93698959 56.21054459 28.60549324 44.32617608 22.90234375 35.25390625 C18.52795339 29.61361515 13.67168253 27.22389418 7 25 C0.4 25 -6.2 25 -13 25 Z " fill="#020C6C" transform="translate(310,53)"/>
<path d="M0 0 C6.93763058 -0.05099583 13.87521224 -0.08585714 20.81298828 -0.10986328 C23.16977749 -0.11987842 25.52655441 -0.13349442 27.88330078 -0.15087891 C31.28421068 -0.17532519 34.68495531 -0.18652831 38.0859375 -0.1953125 C39.64905167 -0.21079636 39.64905167 -0.21079636 41.2437439 -0.22659302 C53.72063805 -0.22847727 64.86376908 1.97400434 74.3125 10.625 C81.85933636 18.79819322 84.20997963 28.05481157 84 39 C83.24895352 51.29838608 78.48122878 61.69272977 69.42578125 70.09375 C60.73009223 76.92707728 51.53933831 79.13272194 40.6875 79.3125 C39.62764893 79.33920776 39.62764893 79.33920776 38.54638672 79.36645508 C33.50683225 79.358594 33.50683225 79.358594 31.29882812 77.79638672 C29.55573645 75.38554677 29.65576728 73.85075341 29.70703125 70.89453125 C29.71669922 69.91162109 29.72636719 68.92871094 29.73632812 67.91601562 C29.76146484 66.89185547 29.78660156 65.86769531 29.8125 64.8125 C29.82603516 63.77673828 29.83957031 62.74097656 29.85351562 61.67382812 C29.88888611 59.11536301 29.93824456 56.5579422 30 54 C31.01320313 53.90203125 32.02640625 53.8040625 33.0703125 53.703125 C34.42197055 53.55294077 35.77352817 53.40185077 37.125 53.25 C38.12273438 53.1571875 38.12273438 53.1571875 39.140625 53.0625 C44.90828531 52.38395173 48.67508349 50.24474697 52.8125 46.25 C54.97963019 42.14385859 55.6739262 38.23711596 54.33984375 33.80859375 C52.3799516 29.50000494 50.50582817 26.86827022 46 25 C41.91608551 24.01522629 37.87390391 23.71137689 33.6875 23.4375 C32.43324219 23.35371094 31.17898438 23.26992187 29.88671875 23.18359375 C28.45779297 23.09271484 28.45779297 23.09271484 27 23 C27.00222061 24.1503624 27.00444122 25.30072479 27.00672913 26.48594666 C27.02695922 37.30200059 27.0419715 48.1180507 27.05181217 58.93411922 C27.05704134 64.49539411 27.06413958 70.05665379 27.07543945 75.61791992 C27.08626715 80.98007419 27.09227658 86.34221378 27.09487724 91.70437813 C27.09673171 93.75500278 27.10035272 95.8056266 27.10573006 97.85624504 C27.11293893 100.71790203 27.11399101 103.57949757 27.11352539 106.44116211 C27.11712067 107.29783478 27.12071594 108.15450745 27.12442017 109.03713989 C27.11405216 114.88594784 27.11405216 114.88594784 26 116 C24.15840977 116.09959621 22.31303033 116.13080411 20.46875 116.1328125 C19.34855469 116.13410156 18.22835937 116.13539063 17.07421875 116.13671875 C15.89472656 116.13285156 14.71523438 116.12898438 13.5 116.125 C11.73076172 116.13080078 11.73076172 116.13080078 9.92578125 116.13671875 C8.80558594 116.13542969 7.68539062 116.13414062 6.53125 116.1328125 C5.49548828 116.13168457 4.45972656 116.13055664 3.39257812 116.12939453 C1 116 1 116 0 115 C-0.09571971 113.50716202 -0.12188227 112.00980345 -0.12025452 110.51390076 C-0.12162918 109.54489838 -0.12300385 108.575896 -0.12442017 107.57752991 C-0.12082489 106.50579025 -0.11722961 105.4340506 -0.11352539 104.32983398 C-0.11367142 103.20802734 -0.11381744 102.0862207 -0.1139679 100.93041992 C-0.1132682 97.20229189 -0.10547315 93.47421311 -0.09765625 89.74609375 C-0.09579227 87.16919482 -0.09436827 84.59229553 -0.09336853 82.01539612 C-0.08993342 75.91324885 -0.0820426 69.81112206 -0.07201904 63.70898253 C-0.06085689 56.7635075 -0.0553472 49.81803165 -0.05032361 42.87254989 C-0.03985996 28.58169034 -0.02226115 14.2908458 0 0 Z " fill="#010A6C" transform="translate(564,53)"/>
<path d="M0 0 C8.00909399 6.40727519 12.16299602 14.98338648 14 25 C15.36771018 38.31288288 13.66130155 49.79281311 5.75390625 60.87109375 C-2.67717837 71.10481562 -12.86803018 76.60545453 -26 78 C-37.24207079 79.08171128 -47.1838483 75.92697633 -56 69 C-56.62648438 68.54753906 -57.25296875 68.09507812 -57.8984375 67.62890625 C-66.85883736 60.72274653 -70.50505066 50.938046 -72 40 C-73.03088158 26.9708022 -71.02969448 15.54881431 -63 5 C-47.15134071 -12.28130646 -18.66047989 -14.17928938 0 0 Z M-41.44921875 17.46484375 C-46.91005786 23.86450907 -46.67707298 30.0431613 -46.23095703 38.10498047 C-45.72784524 42.23304993 -43.76059522 45.0212651 -41 48 C-40.13375 48.969375 -39.2675 49.93875 -38.375 50.9375 C-34.82572916 54.01976152 -31.70161092 54.34940438 -27.05859375 54.28125 C-22.53181235 53.6627903 -19.73136546 50.79231258 -16.75 47.5625 C-12.13548486 40.8055314 -12.27150861 33.95944301 -13 26 C-14.51737106 20.64409026 -17.19660092 16.92890188 -22 14 C-28.89037547 11.82409196 -36.15773742 12.11631141 -41.44921875 17.46484375 Z " fill="#030B6C" transform="translate(727,93)"/>
<path d="M0 0 C8.95338759 7.10042564 14.52267657 16.39987122 16.24609375 27.78125 C17.27567028 40.94512134 15.71778666 53.54444394 6.8984375 64.046875 C-3.06348853 74.50336473 -13.70342662 79.46611189 -28.19140625 80.09375 C-40.9064371 79.6857811 -51.48761936 74.60877514 -60.19140625 65.40625 C-69.34367713 54.34491648 -70.88303643 40.74530296 -69.75390625 26.78125 C-67.68580957 15.57389974 -62.48094373 7.1788514 -53.625 0.05859375 C-38.42332012 -10.31917101 -15.19465653 -10.17967137 0 0 Z M-40.50390625 20.46875 C-44.76078559 26.05762062 -45.30968665 32.41924175 -44.421875 39.1875 C-42.84896638 45.29516856 -39.50908518 50.143083 -34.94140625 54.40625 C-30.72400192 56.22552245 -27.2763929 56.5850672 -22.75390625 55.78125 C-16.64647698 52.66991811 -12.89423193 48.2571072 -10.75390625 41.78125 C-10.02782775 34.71464875 -9.71066224 27.57493777 -13.48046875 21.33203125 C-16.39584923 17.78170594 -20.17846005 15.33584954 -24.75390625 14.78125 C-31.65374179 14.27015107 -35.54888332 15.62634123 -40.50390625 20.46875 Z " fill="#030C6B" transform="translate(447.75390625,91.21875)"/>
<path d="M0 0 C5.98184539 4.89423714 10.87983316 10.53699772 12.08032227 18.41870117 C12.27965621 21.01057907 12.37464699 23.58867444 12.4375 26.1875 C12.47093506 27.18007812 12.50437012 28.17265625 12.53881836 29.1953125 C13.02315556 46.20372548 12.8256502 63.2371108 12.75 80.25 C4.5 80.25 -3.75 80.25 -12.25 80.25 C-12.31058594 77.36894531 -12.37117187 74.48789063 -12.43359375 71.51953125 C-12.49564643 68.68625949 -12.55892411 65.8530175 -12.62231445 63.01977539 C-12.66525784 61.07156093 -12.70695544 59.12331854 -12.74731445 57.17504883 C-11.52360155 36.89819357 -11.52360155 36.89819357 -18.25 19.25 C-22.12098105 16.70621245 -25.65610024 17.24586623 -30.06640625 17.765625 C-34.46751636 18.74189987 -36.89966862 20.33938773 -39.39103699 24.21157837 C-41.26902283 28.66826266 -40.83229049 33.63541809 -40.82421875 38.39453125 C-40.84546562 40.14282478 -40.84546562 40.14282478 -40.86714172 41.92643738 C-40.90899453 45.63855293 -40.92428035 49.35018178 -40.9375 53.0625 C-40.96651468 56.79244565 -41.00098073 60.52226692 -41.03999329 64.25212097 C-41.06255988 66.57132848 -41.07833078 68.89061347 -41.08683777 71.20991516 C-41.09387222 72.25157333 -41.10090668 73.29323151 -41.1081543 74.36645508 C-41.11337349 75.74828728 -41.11337349 75.74828728 -41.11869812 77.15803528 C-41.25 79.25 -41.25 79.25 -42.25 80.25 C-45.88232607 80.63235011 -49.53916015 80.7200424 -53.1875 80.875 C-54.21552734 80.9265625 -55.24355469 80.978125 -56.30273438 81.03125 C-57.28435547 81.07507813 -58.26597656 81.11890625 -59.27734375 81.1640625 C-60.18218506 81.2048291 -61.08702637 81.2455957 -62.01928711 81.28759766 C-64.25 81.25 -64.25 81.25 -66.25 80.25 C-67.32969064 75.72606151 -67.39301498 71.23422806 -67.37939453 66.6081543 C-67.38114685 65.86761307 -67.38289917 65.12707184 -67.38470459 64.36408997 C-67.38908044 61.93410856 -67.38620174 59.5042008 -67.3828125 57.07421875 C-67.38348641 55.38125088 -67.38445716 53.6882831 -67.38571167 51.99531555 C-67.38718254 48.45739821 -67.38505236 44.91950619 -67.38037109 41.3815918 C-67.3746523 36.83729653 -67.37797019 32.29306005 -67.38394356 27.7487669 C-67.38754706 24.25819958 -67.38641194 20.76764635 -67.38381577 17.27707863 C-67.38314704 15.60046189 -67.38397304 13.92384389 -67.38629532 12.24722862 C-67.38882073 9.91307526 -67.38498388 7.57901912 -67.37939453 5.24487305 C-67.38141876 4.54723846 -67.38344299 3.84960388 -67.38552856 3.13082886 C-67.36426741 -1.63573259 -67.36426741 -1.63573259 -66.25 -2.75 C-63.55601543 -3.01791007 -60.88838488 -3.22053392 -58.1875 -3.375 C-57.07858398 -3.45234375 -57.07858398 -3.45234375 -55.94726562 -3.53125 C-50.89933762 -3.83156418 -46.25000614 -3.51050037 -41.25 -2.75 C-40.92 -0.77 -40.59 1.21 -40.25 3.25 C-39.50556641 2.63511719 -39.50556641 2.63511719 -38.74609375 2.0078125 C-27.13984502 -7.19790281 -12.84289634 -6.91540572 0 0 Z " fill="#020B6C" transform="translate(870.25,88.75)"/>
<path d="M0 0 C0.83112305 0.00491455 1.66224609 0.0098291 2.51855469 0.01489258 C11.96473071 0.19526903 19.33452759 2.00724748 26.5625 8.3125 C27.77947347 11.38407688 27.54501945 13.17306303 26.34765625 16.203125 C26.07373047 16.91210938 25.79980469 17.62109375 25.51757812 18.3515625 C25.22302734 19.08117187 24.92847656 19.81078125 24.625 20.5625 C24.18897461 21.68011719 24.18897461 21.68011719 23.74414062 22.8203125 C23.02676278 24.65491814 22.29592561 26.48425065 21.5625 28.3125 C17.72795194 27.79209705 14.72187228 27.06529555 11.3125 25.25 C5.65734352 22.65528115 0.31543646 22.14462816 -5.671875 24.0078125 C-10.52846533 26.18049765 -13.39805837 28.98359828 -16.4375 33.3125 C-18.48444001 39.45332003 -18.70191611 47.78682521 -16.49609375 53.9375 C-13.75583562 58.47309967 -10.20983506 61.92633247 -5.4375 64.3125 C1.0679207 65.1589302 5.42967441 64.49823055 10.67578125 60.50390625 C12.93656407 59.07628977 14.93722029 58.70561417 17.5625 58.3125 C19.2693782 60.3613538 20.95195575 62.42381256 22.625 64.5 C23.11033203 65.07814453 23.59566406 65.65628906 24.09570312 66.25195312 C26.20158862 68.89551151 27.55539952 70.60245218 27.58984375 74.046875 C24.85785584 80.07179131 17.60672635 83.00863077 11.8359375 85.55078125 C0.33116846 89.40547191 -12.41065203 87.85899365 -23.4375 83.3125 C-34.14034956 77.30316875 -41.44096699 68.8108246 -45.5546875 57.24609375 C-48.17310379 47.29453766 -48.44145179 33.65602598 -43.69140625 24.37109375 C-43.07072266 23.35208984 -43.07072266 23.35208984 -42.4375 22.3125 C-42.01339844 21.54035156 -41.58929688 20.76820312 -41.15234375 19.97265625 C-35.60719409 10.68955055 -26.85293446 4.62750703 -16.48413086 1.77514648 C-10.94845113 0.41824975 -5.68936875 -0.03997622 0 0 Z " fill="#030B6B" transform="translate(521.4375,83.6875)"/>
<path d="M0 0 C1.50156874 3.00313748 1.09281204 5.79067522 1.0625 9.125 C1.05347656 10.40632813 1.04445313 11.68765625 1.03515625 13.0078125 C1.02355469 13.99523437 1.01195312 14.98265625 1 16 C2.19238281 15.98839844 3.38476562 15.97679688 4.61328125 15.96484375 C6.17968594 15.95546408 7.74609231 15.94636407 9.3125 15.9375 C10.09818359 15.92912109 10.88386719 15.92074219 11.69335938 15.91210938 C12.45068359 15.90888672 13.20800781 15.90566406 13.98828125 15.90234375 C14.68477783 15.89710693 15.38127441 15.89187012 16.09887695 15.88647461 C18 16 18 16 21 17 C22.21989687 23.09948433 21.95686566 28.85479607 21 35 C20 36 20 36 18.14233398 36.11352539 C16.95619507 36.10567017 16.95619507 36.10567017 15.74609375 36.09765625 C14.89208984 36.09443359 14.03808594 36.09121094 13.15820312 36.08789062 C12.26037109 36.07951172 11.36253906 36.07113281 10.4375 36.0625 C9.53580078 36.05798828 8.63410156 36.05347656 7.70507812 36.04882812 C5.46998686 36.03700225 3.23502563 36.0205222 1 36 C1.09361214 41.48125737 1.19972368 46.96207708 1.31738281 52.44287109 C1.3556459 54.30706162 1.39050346 56.1713253 1.421875 58.03564453 C1.46758356 60.71673716 1.52556822 63.39732733 1.5859375 66.078125 C1.59748871 66.91055725 1.60903992 67.7429895 1.62094116 68.60064697 C1.65529054 74.12585629 1.65529054 74.12585629 4 79 C7.78040737 80.19866575 10.85141623 79.91227857 14.6875 79.3125 C18.74425326 78.80200253 18.74425326 78.80200253 20.9375 80.5 C22.66236534 84.55850668 24 88.23446047 24 92.6875 C22.17676526 96.90373035 18.40680292 98.42663054 14.31640625 100.09375 C10.32817453 101.18358482 6.73857362 101.3438805 2.625 101.3125 C1.86985107 101.30758545 1.11470215 101.3026709 0.33666992 101.29760742 C-8.1218852 101.11900231 -13.87431817 98.98322411 -20 93 C-26.22472243 85.21909696 -25.28877175 73.64042321 -25.1875 64.25 C-25.17783203 62.39906738 -25.17783203 62.39906738 -25.16796875 60.51074219 C-25.09852828 52.29289687 -24.77937719 44.18346054 -24 36 C-28.95 36 -33.9 36 -39 36 C-40.01417168 29.91496995 -40.29973543 24.08050141 -39 18 C-37 16 -37 16 -33.9609375 15.8046875 C-32.18589844 15.83949219 -32.18589844 15.83949219 -30.375 15.875 C-28.59222656 15.90207031 -28.59222656 15.90207031 -26.7734375 15.9296875 C-25.85820313 15.95289062 -24.94296875 15.97609375 -24 16 C-24.01160156 14.85660156 -24.02320313 13.71320313 -24.03515625 12.53515625 C-24.04453288 11.04427246 -24.05363321 9.55338691 -24.0625 8.0625 C-24.07087891 7.30775391 -24.07925781 6.55300781 -24.08789062 5.77539062 C-24.09652441 3.85005687 -24.05224333 1.92464419 -24 0 C-19.3945015 -4.6054985 -5.13371061 -2.3694049 0 0 Z " fill="#020B6C" transform="translate(933,69)"/>
<path d="M0 0 C1.61358398 -0.01836914 1.61358398 -0.01836914 3.25976562 -0.03710938 C4.28650391 -0.03904297 5.31324219 -0.04097656 6.37109375 -0.04296875 C7.79119751 -0.04913208 7.79119751 -0.04913208 9.23999023 -0.05541992 C11.5625 0.1875 11.5625 0.1875 13.5625 2.1875 C13.80973816 4.91534424 13.80973816 4.91534424 13.80541992 8.43457031 C13.80849655 9.7506427 13.81157318 11.06671509 13.81474304 12.42266846 C13.80783655 13.87032236 13.80056894 15.31797457 13.79296875 16.765625 C13.79177562 18.25380412 13.79132407 19.741984 13.7915802 21.23016357 C13.79001283 24.36084669 13.78171446 27.49141589 13.76831055 30.62207031 C13.75149685 34.59574145 13.74749121 38.5692853 13.74825573 42.54298782 C13.74798063 45.6249102 13.74244298 48.70680583 13.73525429 51.78871918 C13.73211225 53.25083972 13.7301109 54.71296325 13.72936058 56.17508698 C13.7192926 65.5576261 13.3604616 74.83757993 12.5625 84.1875 C9.71340394 85.13719869 7.92001252 85.31619462 4.96484375 85.3203125 C3.63936523 85.32224609 3.63936523 85.32224609 2.28710938 85.32421875 C1.36736328 85.32035156 0.44761719 85.31648438 -0.5 85.3125 C-1.42361328 85.31636719 -2.34722656 85.32023437 -3.29882812 85.32421875 C-4.18119141 85.32292969 -5.06355469 85.32164062 -5.97265625 85.3203125 C-6.780979 85.31918457 -7.58930176 85.31805664 -8.42211914 85.31689453 C-10.4375 85.1875 -10.4375 85.1875 -12.4375 84.1875 C-12.46062312 73.38291915 -12.47841493 62.57834414 -12.48931217 51.77374363 C-12.49454107 46.7572753 -12.50163883 41.74082385 -12.51293945 36.72436523 C-12.5237681 31.88740306 -12.52977679 27.05045716 -12.53237724 22.21348381 C-12.53423153 20.36381715 -12.53785222 18.51415143 -12.54323006 16.66449165 C-12.5504402 14.08302986 -12.55149095 11.50163618 -12.55102539 8.92016602 C-12.55462067 8.14764999 -12.55821594 7.37513397 -12.56192017 6.57920837 C-12.54453622 -2.26979255 -7.62989731 0.00455516 0 0 Z " fill="#070F6D" transform="translate(768.4375,84.8125)"/>
<path d="M0 0 C0.69029297 0.01869141 1.38058594 0.03738281 2.09179688 0.05664062 C7.15413988 0.3301511 10.16478851 1.61142527 14.0625 4.8125 C18.03513146 9.58178216 18.69628506 15.09273954 18.4453125 21.1328125 C17.63208077 26.82543459 15.31320611 30.97460014 11 34.75 C7.36785734 37.30022783 4.93929112 37.93918987 0.61328125 37.91015625 C-0.23427734 37.90693359 -1.08183594 37.90371094 -1.95507812 37.90039062 C-3.27668945 37.88782227 -3.27668945 37.88782227 -4.625 37.875 C-5.51767578 37.87048828 -6.41035156 37.86597656 -7.33007812 37.86132812 C-9.53261987 37.84954983 -11.73502599 37.83310164 -13.9375 37.8125 C-13.9621826 32.86458706 -13.98035166 27.9167098 -13.99243164 22.96875 C-13.99746653 21.28482438 -14.00429481 19.60090314 -14.01293945 17.91699219 C-14.02504196 15.49933797 -14.03073668 13.08174144 -14.03515625 10.6640625 C-14.04031754 9.9088028 -14.04547882 9.15354309 -14.05079651 8.37539673 C-14.05137171 3.04024341 -14.05137171 3.04024341 -12.9375 0.8125 C-8.67357197 -0.50133794 -4.40166787 -0.24113129 0 0 Z M-3.9375 8.8125 C-3.9375 15.4125 -3.9375 22.0125 -3.9375 28.8125 C1.91199318 29.45768082 1.91199318 29.45768082 4.875 26.4375 C8.25608768 22.38019479 8.42080199 20.09745439 8.0625 14.8125 C6.31521222 11.08446535 6.31521222 11.08446535 3.0625 8.8125 C0.7525 8.8125 -1.5575 8.8125 -3.9375 8.8125 Z " fill="#363958" transform="translate(281.9375,191.1875)"/>
<path d="M0 0 C2.64 0 5.28 0 8 0 C9 1 9 1 9.09765625 3.94140625 C9.08605469 5.13636719 9.07445312 6.33132812 9.0625 7.5625 C9.05347656 8.76003906 9.04445313 9.95757812 9.03515625 11.19140625 C9.02355469 12.11824219 9.01195312 13.04507813 9 14 C9.66 13.67 10.32 13.34 11 13 C15.82911 12.47862706 19.74166846 12.26597327 24 14.75 C28.28976462 19.57598519 28.48319377 23.75640002 28.390625 30.07421875 C27.79834978 34.51036013 26.35701449 36.11140614 23 39 C20.0294763 39.99017457 18.09363586 40.10393262 15 40.0625 C13.700625 40.04896484 13.700625 40.04896484 12.375 40.03515625 C11.59125 40.02355469 10.8075 40.01195312 10 40 C9.01 40 8.02 40 7 40 C4.69 40 2.38 40 0 40 C0 26.8 0 13.6 0 0 Z M12 21 C9.62801043 22.93602047 9.62801043 22.93602047 9.75 26.4375 C9.71190353 30.10420618 9.71190353 30.10420618 12 33 C15.29075996 32.62095792 15.29075996 32.62095792 18 31 C18.22918242 26.98342857 18.22918242 26.98342857 18 23 C17.34 22.34 16.68 21.68 16 21 C14.68 21 13.36 21 12 21 Z " fill="#353957" transform="translate(388,189)"/>
<path d="M0 0 C2.33294775 -0.04241723 4.66702567 -0.04092937 7 0 C8 1 8 1 8.11352539 4.69360352 C8.11336624 6.33871292 8.10766988 7.98382731 8.09765625 9.62890625 C8.0962413 10.49313705 8.09482635 11.35736786 8.09336853 12.24778748 C8.08775239 15.01939292 8.07519719 17.7909188 8.0625 20.5625 C8.05748708 22.4368478 8.05292381 24.31119685 8.04882812 26.18554688 C8.03777772 30.79039544 8.0205023 35.39518421 8 40 C0.25 40.125 0.25 40.125 -2 39 C-2.886875 39.37125 -3.77375 39.7425 -4.6875 40.125 C-9.16888833 41.30876296 -11.03562194 40.27584666 -15 38 C-18.85098778 34.55437935 -19.75263448 31.27033751 -20.1015625 26.27734375 C-19.89633324 21.67547237 -17.91623324 18.33911012 -15.375 14.625 C-11.85771607 12.21843731 -8.21187763 11.9612166 -4 12 C-3.01 12.33 -2.02 12.66 -1 13 C-1.01160156 12.22914063 -1.02320313 11.45828125 -1.03515625 10.6640625 C-1.04417969 9.66117188 -1.05320312 8.65828125 -1.0625 7.625 C-1.07410156 6.62726563 -1.08570313 5.62953125 -1.09765625 4.6015625 C-1 2 -1 2 0 0 Z M-8.125 21.125 C-10.30148869 22.91777581 -10.30148869 22.91777581 -10.375 26 C-10.2049729 29.17702205 -10.2049729 29.17702205 -8 32 C-5.5 32.41666667 -5.5 32.41666667 -3 32 C-0.63589512 30.06268472 -0.63589512 30.06268472 -0.6875 26.5625 C-0.68965081 23.09161103 -0.68965081 23.09161103 -2.375 21.0625 C-4.77730714 19.49176071 -5.61091378 19.79401318 -8.125 21.125 Z " fill="#363A57" transform="translate(518,189)"/>
<path d="M0 0 C17 0 17 0 24 3 C27.29216983 6.61076691 27.45677927 10.15566089 27.29296875 14.8515625 C26.70737978 19.14588163 24.26504012 22.27913324 21 25 C18.24921116 25.91692961 16.64051087 26.10886083 13.8125 26.0625 C11.9253125 26.0315625 11.9253125 26.0315625 10 26 C9.67 29.96 9.34 33.92 9 38 C6.03 38 3.06 38 0 38 C0 25.46 0 12.92 0 0 Z M9 9 C9 11.97 9 14.94 9 18 C11.64 17.34 14.28 16.68 17 16 C17.33 14.68 17.66 13.36 18 12 C17.34 11.01 16.68 10.02 16 9 C12.41642759 8.74984127 12.41642759 8.74984127 9 9 Z " fill="#373C5A" transform="translate(548,191)"/>
<path d="M0 0 C2.64 0 5.28 0 8 0 C8.33 4.29 8.66 8.58 9 13 C9.66 12.67 10.32 12.34 11 12 C18.11146121 11.30051201 18.11146121 11.30051201 21.9375 14.3125 C24.58690571 17.76475592 25.12664927 20.18520673 25.1328125 24.4140625 C25.13474609 25.67863281 25.13474609 25.67863281 25.13671875 26.96875 C25.13285156 27.8453125 25.12898438 28.721875 25.125 29.625 C25.13080078 30.95144531 25.13080078 30.95144531 25.13671875 32.3046875 C25.13542969 33.14515625 25.13414062 33.985625 25.1328125 34.8515625 C25.13168457 35.62322754 25.13055664 36.39489258 25.12939453 37.18994141 C25 39 25 39 24 40 C21.36 40 18.72 40 16 40 C15.67 34.06 15.34 28.12 15 22 C13.68 21.67 12.36 21.34 11 21 C7.97906785 24.02093215 8.53323166 27.56372072 8.375 31.625 C8.31699219 32.82769531 8.31699219 32.82769531 8.2578125 34.0546875 C8.16346069 36.03607556 8.08063785 38.01800645 8 40 C5.36 40 2.72 40 0 40 C-1.54611184 36.90777632 -1.14201986 33.64645215 -1.1328125 30.25390625 C-1.13376923 29.48698959 -1.13472595 28.72007294 -1.13571167 27.92991638 C-1.13639262 26.306711 -1.13454426 24.6835029 -1.13037109 23.06030273 C-1.12502891 20.57594675 -1.13031515 18.09177216 -1.13671875 15.60742188 C-1.13605781 14.0312496 -1.13477632 12.45507744 -1.1328125 10.87890625 C-1.13483673 10.13508194 -1.13686096 9.39125763 -1.13894653 8.62489319 C-1.12466415 5.48019165 -1.00205986 3.00617959 0 0 Z " fill="#333657" transform="translate(358,189)"/>
<path d="M0 0 C6.93763058 -0.05099583 13.87521224 -0.08585714 20.81298828 -0.10986328 C23.16977749 -0.11987842 25.52655441 -0.13349442 27.88330078 -0.15087891 C31.28421068 -0.17532519 34.68495531 -0.18652831 38.0859375 -0.1953125 C39.64905167 -0.21079636 39.64905167 -0.21079636 41.2437439 -0.22659302 C51.18675234 -0.2280946 59.27463278 1.15257377 68 6 C65.53721199 7.231394 63.7204945 7.07159196 61 7 C60.505 5.515 60.505 5.515 60 4 C58.2984375 4.0309375 58.2984375 4.0309375 56.5625 4.0625 C53 4 53 4 52 3 C49.07540984 2.92352013 46.17416157 2.90939618 43.25 2.9375 C42.36272217 2.94128662 41.47544434 2.94507324 40.5612793 2.94897461 C36.7545002 2.96533278 32.94782723 2.9932009 29.14111328 3.02050781 C26.36491403 3.03874387 23.58873315 3.05075324 20.8125 3.0625 C19.96526367 3.07079834 19.11802734 3.07909668 18.24511719 3.08764648 C17.42817383 3.09094971 16.61123047 3.09425293 15.76953125 3.09765625 C15.06417236 3.10289307 14.35881348 3.10812988 13.63208008 3.11352539 C9.7406125 2.94568081 5.87126221 2.43014025 2 2 C2 38.96 2 75.92 2 114 C9.59 114 17.18 114 25 114 C24.98839844 111.94394531 24.97679687 109.88789063 24.96484375 107.76953125 C24.84781822 79.83796204 25.3987283 51.92409227 26 24 C26.33 24 26.66 24 27 24 C27.02312202 35.84765173 27.04091437 47.69529814 27.05181217 59.5429678 C27.05704131 65.04370862 27.06413951 70.54443405 27.07543945 76.04516602 C27.08626725 81.3489656 27.0922766 86.65275035 27.09487724 91.95656013 C27.09673169 93.98485612 27.10035267 96.01315126 27.10573006 98.04144096 C27.11293906 100.87196514 27.113991 103.70242718 27.11352539 106.53295898 C27.11712067 107.38028091 27.12071594 108.22760284 27.12442017 109.1006012 C27.11405216 114.88594784 27.11405216 114.88594784 26 116 C24.15840977 116.09959621 22.31303033 116.13080411 20.46875 116.1328125 C19.34855469 116.13410156 18.22835937 116.13539063 17.07421875 116.13671875 C15.89472656 116.13285156 14.71523438 116.12898438 13.5 116.125 C11.73076172 116.13080078 11.73076172 116.13080078 9.92578125 116.13671875 C8.80558594 116.13542969 7.68539062 116.13414062 6.53125 116.1328125 C5.49548828 116.13168457 4.45972656 116.13055664 3.39257812 116.12939453 C1 116 1 116 0 115 C-0.09571971 113.50716202 -0.12188227 112.00980345 -0.12025452 110.51390076 C-0.12162918 109.54489838 -0.12300385 108.575896 -0.12442017 107.57752991 C-0.12082489 106.50579025 -0.11722961 105.4340506 -0.11352539 104.32983398 C-0.11367142 103.20802734 -0.11381744 102.0862207 -0.1139679 100.93041992 C-0.1132682 97.20229189 -0.10547315 93.47421311 -0.09765625 89.74609375 C-0.09579227 87.16919482 -0.09436827 84.59229553 -0.09336853 82.01539612 C-0.08993342 75.91324885 -0.0820426 69.81112206 -0.07201904 63.70898253 C-0.06085689 56.7635075 -0.0553472 49.81803165 -0.05032361 42.87254989 C-0.03985996 28.58169034 -0.02226115 14.2908458 0 0 Z " fill="#0E1157" transform="translate(564,53)"/>
<path d="M0 0 C2.63549905 2.18369922 3.87256411 3.62897101 5.1875 6.8125 C5.42087163 9.83111132 5.36516945 12.79211938 5.1875 15.8125 C4.42824219 15.87308594 3.66898438 15.93367188 2.88671875 15.99609375 C1.89285156 16.07988281 0.89898438 16.16367188 -0.125 16.25 C-1.11113281 16.33121094 -2.09726562 16.41242188 -3.11328125 16.49609375 C-5.90625599 16.73062559 -5.90625599 16.73062559 -8.8125 17.8125 C-5.46997276 17.88677838 -3.0089086 17.87796953 0.1875 16.8125 C2.1875 18.625 2.1875 18.625 4.1875 20.8125 C4.1875 21.8025 4.1875 22.7925 4.1875 23.8125 C-0.40491149 26.327392 -4.49907152 28.53169378 -9.828125 27.375 C-14.49544824 25.85379835 -17.14329761 24.08322382 -19.8125 19.8125 C-21.27115112 15.43654663 -21.64729492 11.22147962 -20.12890625 6.83984375 C-16.04399869 -1.14352331 -8.0943426 -3.41761132 0 0 Z M-9.5 7.3125 C-9.933125 7.8075 -10.36625 8.3025 -10.8125 8.8125 C-8.1725 8.8125 -5.5325 8.8125 -2.8125 8.8125 C-3.4725 7.8225 -4.1325 6.8325 -4.8125 5.8125 C-7.81509517 5.48031808 -7.81509517 5.48031808 -9.5 7.3125 Z " fill="#373B59" transform="translate(657.8125,202.1875)"/>
<path d="M0 0 C3.61345044 4.06513174 4.47136386 7.72656772 4.31640625 13.19140625 C3.6119662 17.77461497 1.2916191 21.07234729 -2.125 24.1875 C-6.45581893 25.78802004 -10.44248821 25.90002973 -15 25.25 C-18.76367773 23.47080689 -20.50626666 21.95768445 -22.875 18.5625 C-24.79789005 12.90065707 -24.96929507 8.34367734 -22.4375 2.875 C-16.27758098 -3.75875895 -7.77289775 -4.53419036 0 0 Z M-15 7.25 C-15.46498298 11.95696153 -15.46498298 11.95696153 -13.8125 16.25 C-11.97085189 17.46478802 -11.97085189 17.46478802 -9.4375 17.1875 C-6.92271128 16.45909958 -6.92271128 16.45909958 -5.625 14.5 C-4.84540143 11.69344513 -5.12770245 10.01227559 -6 7.25 C-7.82703227 5.0008092 -7.82703227 5.0008092 -10.5 5 C-13.17296773 5.0008092 -13.17296773 5.0008092 -15 7.25 Z " fill="#373B59" transform="translate(443,203.75)"/>
<path d="M0 0 C2.125 1.6875 2.125 1.6875 4.125 4.6875 C4.35205078 7.04760742 4.35205078 7.04760742 4.3203125 9.79296875 C4.31386719 10.77587891 4.30742188 11.75878906 4.30078125 12.77148438 C4.28402344 13.79564453 4.26726563 14.81980469 4.25 15.875 C4.24097656 16.91076172 4.23195313 17.94652344 4.22265625 19.01367188 C4.1990786 21.57184685 4.1661703 24.12955748 4.125 26.6875 C0.78247276 26.76177838 -1.6785914 26.75296953 -4.875 25.6875 C-5.535 26.0175 -6.195 26.3475 -6.875 26.6875 C-11.68234452 27.34862793 -14.87898478 27.3786126 -18.9375 24.5625 C-20.875 21.6875 -20.875 21.6875 -21.5 18.75 C-20.67674387 14.71604495 -19.21673824 12.05242244 -15.875 9.6875 C-12.57592896 8.62978257 -9.31294857 8.07468644 -5.875 7.6875 C-8.845 7.6875 -11.815 7.6875 -14.875 7.6875 C-15.205 5.3775 -15.535 3.0675 -15.875 0.6875 C-10.58753339 -1.9562333 -5.39735873 -2.46401159 0 0 Z M-9.875 15.6875 C-10.865 17.1725 -10.865 17.1725 -11.875 18.6875 C-9.4 19.1825 -9.4 19.1825 -6.875 19.6875 C-6.215 18.3675 -5.555 17.0475 -4.875 15.6875 C-7.29119823 15.43719023 -7.29119823 15.43719023 -9.875 15.6875 Z " fill="#363A57" transform="translate(597.875,202.3125)"/>
<path d="M0 0 C2.1875 1.6875 2.1875 1.6875 4.1875 4.6875 C4.41455078 7.04760742 4.41455078 7.04760742 4.3828125 9.79296875 C4.37636719 10.77587891 4.36992187 11.75878906 4.36328125 12.77148438 C4.34652344 13.79564453 4.32976562 14.81980469 4.3125 15.875 C4.30347656 16.91076172 4.29445313 17.94652344 4.28515625 19.01367188 C4.2615786 21.57184685 4.2286703 24.12955748 4.1875 26.6875 C0.84497276 26.76177838 -1.6160914 26.75296953 -4.8125 25.6875 C-5.4725 26.0175 -6.1325 26.3475 -6.8125 26.6875 C-10.82588025 27.09038759 -14.54069523 27.19622191 -18.3125 25.6875 C-20.64782539 22.57373281 -21.19922806 19.47600265 -20.8125 15.6875 C-18.69549521 11.74549108 -17.50686543 10.22473782 -13.25 8.875 C-10.77199064 8.36813445 -8.32516406 7.97047964 -5.8125 7.6875 C-8.7825 7.6875 -11.7525 7.6875 -14.8125 7.6875 C-15.1425 5.3775 -15.4725 3.0675 -15.8125 0.6875 C-10.32700967 -1.45317915 -5.50797723 -2.57038937 0 0 Z M-9.8125 15.6875 C-10.1425 17.0075 -10.4725 18.3275 -10.8125 19.6875 C-9.1625 19.3575 -7.5125 19.0275 -5.8125 18.6875 C-5.4825 17.6975 -5.1525 16.7075 -4.8125 15.6875 C-6.4625 15.6875 -8.1125 15.6875 -9.8125 15.6875 Z " fill="#363A56" transform="translate(323.8125,202.3125)"/>
<path d="M0 0 C2.99452434 2.24589325 3.81623122 3.44869367 5 7 C5.08106686 8.55421729 5.10756898 10.11167027 5.09765625 11.66796875 C5.09443359 12.56064453 5.09121094 13.45332031 5.08789062 14.37304688 C5.07951172 15.30181641 5.07113281 16.23058594 5.0625 17.1875 C5.05798828 18.12787109 5.05347656 19.06824219 5.04882812 20.03710938 C5.03704645 22.35810008 5.01911114 24.67905807 5 27 C2.03 27 -0.94 27 -4 27 C-4.33 21.06 -4.66 15.12 -5 9 C-6.65 8.67 -8.3 8.34 -10 8 C-11.51421001 9.51421001 -11.21309856 10.92472768 -11.31640625 13.03515625 C-11.35830078 13.84404297 -11.40019531 14.65292969 -11.44335938 15.48632812 C-11.48267578 16.33646484 -11.52199219 17.18660156 -11.5625 18.0625 C-11.60568359 18.91650391 -11.64886719 19.77050781 -11.69335938 20.65039062 C-11.79976702 22.76672037 -11.90041731 24.88333813 -12 27 C-14.97 27 -17.94 27 -21 27 C-21 18.09 -21 9.18 -21 0 C-17.7 0 -14.4 0 -11 0 C-7.51428834 -1.74285583 -3.70486842 -0.86359033 0 0 Z " fill="#353957" transform="translate(628,202)"/>
<path d="M0 0 C2.1875 1.6875 2.1875 1.6875 4.1875 4.6875 C4.41455078 7.04760742 4.41455078 7.04760742 4.3828125 9.79296875 C4.37636719 10.77587891 4.36992187 11.75878906 4.36328125 12.77148438 C4.34652344 13.79564453 4.32976562 14.81980469 4.3125 15.875 C4.30347656 16.91076172 4.29445313 17.94652344 4.28515625 19.01367188 C4.2615786 21.57184685 4.2286703 24.12955748 4.1875 26.6875 C0.84497276 26.76177838 -1.6160914 26.75296953 -4.8125 25.6875 C-5.4725 26.0175 -6.1325 26.3475 -6.8125 26.6875 C-10.82588025 27.09038759 -14.54069523 27.19622191 -18.3125 25.6875 C-20.63529351 22.59044199 -21.24694534 19.46218899 -20.8125 15.6875 C-18.93021327 12.10731381 -16.70081861 9.9836062 -12.8125 8.6875 C-11.41810336 8.62084624 -10.02080125 8.60211801 -8.625 8.625 C-6.7378125 8.6559375 -6.7378125 8.6559375 -4.8125 8.6875 C-4.8125 8.0275 -4.8125 7.3675 -4.8125 6.6875 C-8.1125 7.0175 -11.4125 7.3475 -14.8125 7.6875 C-15.1425 5.3775 -15.4725 3.0675 -15.8125 0.6875 C-10.32700967 -1.45317915 -5.50797723 -2.57038937 0 0 Z M-9.8125 15.6875 C-10.1425 17.0075 -10.4725 18.3275 -10.8125 19.6875 C-8.37532742 19.41715366 -8.37532742 19.41715366 -5.8125 18.6875 C-5.1525 17.6975 -4.4925 16.7075 -3.8125 15.6875 C-5.7925 15.6875 -7.7725 15.6875 -9.8125 15.6875 Z " fill="#363A56" transform="translate(469.8125,202.3125)"/>
<path d="M0 0 C2.5 1.6875 2.5 1.6875 4.5 4.6875 C5.19097369 9.42790087 5.17352182 13.4440751 2.875 17.6875 C-1.36265776 21.2560539 -5.07477438 21.89929559 -10.5 21.6875 C-14.8977502 21.10290481 -17.61416644 19.97811756 -20.49609375 16.5625 C-22.42086609 12.96759446 -22.4506258 9.60184154 -21.5 5.6875 C-16.98194616 -2.52714334 -8.1314817 -3.04930564 0 0 Z " fill="#010A6B" transform="translate(777.5,54.3125)"/>
<path d="M0 0 C0 2.31 0 4.62 0 7 C-3.3 7 -6.6 7 -10 7 C-10 7.66 -10 8.32 -10 9 C-8.6696875 9.12375 -8.6696875 9.12375 -7.3125 9.25 C-3.46046738 10.12215833 -1.70735212 11.13794204 1 14 C2.22639835 17.60254515 2.32594514 19.24517968 0.8125 22.75 C-1.12487392 25.1550159 -2.16556522 25.89001156 -5 27 C-7.69140625 27.265625 -7.69140625 27.265625 -10.5625 27.25 C-11.98755859 27.25773437 -11.98755859 27.25773437 -13.44140625 27.265625 C-16 27 -16 27 -19 25 C-19.1875 22.375 -19.1875 22.375 -19 20 C-15.59437148 19.22157062 -12.49234244 18.90021879 -9 19 C-9 18.34 -9 17.68 -9 17 C-9.63808594 16.72285156 -10.27617187 16.44570312 -10.93359375 16.16015625 C-11.75988281 15.79792969 -12.58617187 15.43570313 -13.4375 15.0625 C-14.26121094 14.70285156 -15.08492188 14.34320313 -15.93359375 13.97265625 C-18 13 -18 13 -19 12 C-19.59063136 4.79429735 -19.59063136 4.79429735 -17.1875 1.5625 C-12.26769945 -1.95164325 -5.63300993 -1.87766998 0 0 Z " fill="#363956" transform="translate(351,202)"/>
<path d="M0 0 C3.5386994 1.65139305 4.81070153 2.71605229 7 6 C7.73446576 10.56051995 7.59262059 14.01911074 5.1875 18 C2.37384417 20.57248533 0.45347543 20.94866316 -3.3125 21.375 C-7.04223987 20.99570442 -9.08085315 20.29036979 -11.82421875 17.6875 C-14.12771964 14.38147878 -14.55417427 10.94156448 -14 7 C-10.68582316 0.77297243 -6.75215792 -0.45777342 0 0 Z " fill="#616FF5" transform="translate(237,28)"/>
<path d="M0 0 C2.05078125 0.03255208 4.1015625 0.06510417 6.15234375 0.09765625 C6.1769915 5.63354158 6.19517871 11.16939525 6.20727539 16.70532227 C6.21231619 18.59009355 6.21914873 20.4748609 6.2277832 22.35961914 C6.23985992 25.06267261 6.24557443 27.76567456 6.25 30.46875 C6.25516129 31.31666611 6.26032257 32.16458221 6.26564026 33.03819275 C6.2658357 35.05836693 6.21440586 37.07843559 6.15234375 39.09765625 C5.65734375 39.59265625 5.65734375 39.59265625 5.15234375 40.09765625 C2.46151503 39.92130173 -0.17617071 39.47929704 -2.84765625 39.09765625 C-2.87230474 33.70418637 -2.89049156 28.310749 -2.90258789 22.91723633 C-2.90762856 21.0809675 -2.91446102 19.24470271 -2.9230957 17.40844727 C-2.93517297 14.77489224 -2.94088706 12.14139009 -2.9453125 9.5078125 C-2.95047379 8.68177017 -2.95563507 7.85572784 -2.96095276 7.00465393 C-2.9611483 5.03529257 -2.90969777 3.06604011 -2.84765625 1.09765625 C-1.84765625 0.09765625 -1.84765625 0.09765625 0 0 Z " fill="#4A4D69" transform="translate(669.84765625,189.90234375)"/>
<path d="M0 0 C0.33 0 0.66 0 1 0 C1.33 3.96 1.66 7.92 2 12 C2.66 11.67 3.32 11.34 4 11 C11.11146121 10.30051201 11.11146121 10.30051201 14.9375 13.3125 C17.58690571 16.76475592 18.12664927 19.18520673 18.1328125 23.4140625 C18.13474609 24.67863281 18.13474609 24.67863281 18.13671875 25.96875 C18.13285156 26.8453125 18.12898438 27.721875 18.125 28.625 C18.13080078 29.95144531 18.13080078 29.95144531 18.13671875 31.3046875 C18.13542969 32.14515625 18.13414062 32.985625 18.1328125 33.8515625 C18.13168457 34.62322754 18.13055664 35.39489258 18.12939453 36.18994141 C18 38 18 38 17 39 C14.36 39 11.72 39 9 39 C8.67 33.06 8.34 27.12 8 21 C5.69 20.34 3.38 19.68 1 19 C-2.10793655 13.86514831 -1.39058391 6.84059189 -1 1 C-0.67 0.67 -0.34 0.34 0 0 Z " fill="#343755" transform="translate(365,190)"/>
<path d="M0 0 C0.33 -0.33 0.66 -0.66 1 -1 C3.5 -1.125 3.5 -1.125 6 -1 C7 0 7 0 7.0625 3.5625 C7.041875 4.696875 7.02125 5.83125 7 7 C6.030625 7.28875 5.06125 7.5775 4.0625 7.875 C0.89335797 8.64214682 0.89335797 8.64214682 0 11 C-0.2322646 13.71262116 -0.41936235 16.40773126 -0.5625 19.125 C-0.60568359 19.87910156 -0.64886719 20.63320312 -0.69335938 21.41015625 C-0.7994832 23.27321888 -0.90025001 25.13658524 -1 27 C-3.97 27 -6.94 27 -10 27 C-10 18.09 -10 9.18 -10 0 C-5.97640291 -1.00589927 -3.97237618 -0.70620021 0 0 Z " fill="#363A57" transform="translate(489,202)"/>
<path d="M0 0 C0.33 0 0.66 0 1 0 C1.33 36.96 1.66 73.92 2 112 C4.97 112 7.94 112 11 112 C11.33 112.33 11.66 112.66 12 113 C14.88252645 113.16023562 17.74378527 113.25954029 20.62890625 113.31640625 C21.92525246 113.3475779 21.92525246 113.3475779 23.24778748 113.37937927 C26.01927445 113.44497114 28.79085921 113.50380418 31.5625 113.5625 C33.43685923 113.60567608 35.31120843 113.64929006 37.18554688 113.69335938 C41.79026336 113.80066227 46.39507858 113.90190215 51 114 C51 114.33 51 114.66 51 115 C40.39931118 116.41342518 29.96948476 116.04521407 19.3125 115.5625 C17.99427246 115.50376709 17.99427246 115.50376709 16.64941406 115.44384766 C0.65968389 114.65968389 0.65968389 114.65968389 -1 113 C-1.10071679 109.89201204 -1.13613934 106.80620454 -1.12939453 103.69775391 C-1.13114685 102.7204129 -1.13289917 101.7430719 -1.13470459 100.7361145 C-1.13912937 97.48291277 -1.13618067 94.22976485 -1.1328125 90.9765625 C-1.1334859 88.71747833 -1.13445623 86.45839423 -1.13571167 84.1993103 C-1.13718993 79.44943557 -1.13503201 74.69957959 -1.13037109 69.94970703 C-1.12470621 63.88281553 -1.1279313 57.81596858 -1.13394356 51.74907875 C-1.13757356 47.0751411 -1.13639885 42.40121383 -1.13381577 37.72727585 C-1.13315154 35.49233368 -1.13395719 33.25739054 -1.13629532 31.02244949 C-1.13885827 27.88033849 -1.13492893 24.73829727 -1.12939453 21.59619141 C-1.13141876 20.68353516 -1.13344299 19.77087891 -1.13552856 18.83056641 C-1.11508286 12.50853685 -0.66209977 6.28629543 0 0 Z " fill="#2A2965" transform="translate(270,55)"/>
<path d="M0 0 C0 0.33 0 0.66 0 1 C-6.6 1.33 -13.2 1.66 -20 2 C-19.91621094 5.09375 -19.83242188 8.1875 -19.74609375 11.375 C-19.1412002 34.96237645 -18.83356072 58.42787549 -20 82 C-19.34 82 -18.68 82 -18 82 C-18.495 82.99 -18.495 82.99 -19 84 C-19.66 83.67 -20.32 83.34 -21 83 C-22.07969064 78.47606151 -22.14301498 73.98422806 -22.12939453 69.3581543 C-22.13114685 68.61761307 -22.13289917 67.87707184 -22.13470459 67.11408997 C-22.13908044 64.68410856 -22.13620174 62.2542008 -22.1328125 59.82421875 C-22.13348641 58.13125088 -22.13445716 56.4382831 -22.13571167 54.74531555 C-22.13718254 51.20739821 -22.13505236 47.66950619 -22.13037109 44.1315918 C-22.1246523 39.58729653 -22.12797019 35.04306005 -22.13394356 30.4987669 C-22.13754706 27.00819958 -22.13641194 23.51764635 -22.13381577 20.02707863 C-22.13314704 18.35046189 -22.13397304 16.67384389 -22.13629532 14.99722862 C-22.13882073 12.66307526 -22.13498388 10.32901912 -22.12939453 7.99487305 C-22.13141876 7.29723846 -22.13344299 6.59960388 -22.13552856 5.88082886 C-22.11426741 1.11426741 -22.11426741 1.11426741 -21 0 C-13.95197288 -0.85029818 -6.97848491 -1.49538962 0 0 Z " fill="#110C53" transform="translate(825,86)"/>
<path d="M0 0 C-0.33 0.66 -0.66 1.32 -1 2 C-12.88 2.33 -24.76 2.66 -37 3 C-37.33 37.98 -37.66 72.96 -38 109 C-38.33 109 -38.66 109 -39 109 C-39.02333048 95.06620728 -39.04091349 81.13241757 -39.05181217 67.19860935 C-39.05704168 60.7293232 -39.06414056 54.26005011 -39.07543945 47.79077148 C-39.08626592 41.553297 -39.09227632 35.31583513 -39.09487724 29.07835197 C-39.09673193 26.69279723 -39.10035336 24.30724321 -39.10573006 21.9216938 C-39.11293729 18.59304409 -39.11399108 15.26444721 -39.11352539 11.93579102 C-39.11712067 10.93885727 -39.12071594 9.94192352 -39.12442017 8.91477966 C-39.1230455 8.01309052 -39.12167084 7.11140137 -39.12025452 6.18238831 C-39.12117631 5.3942553 -39.1220981 4.6061223 -39.12304783 3.79410648 C-39 2 -39 2 -38 1 C-25.53856676 -0.91169714 -12.55961711 -0.09542666 0 0 Z " fill="#0B0D5F" transform="translate(310,53)"/>
<path d="M0 0 C1.50156874 3.00313748 1.09281204 5.79067522 1.0625 9.125 C1.05347656 10.40632813 1.04445313 11.68765625 1.03515625 13.0078125 C1.02355469 13.99523437 1.01195312 14.98265625 1 16 C2.19238281 15.98839844 3.38476562 15.97679688 4.61328125 15.96484375 C6.17968594 15.95546408 7.74609231 15.94636407 9.3125 15.9375 C10.09818359 15.92912109 10.88386719 15.92074219 11.69335938 15.91210938 C12.45068359 15.90888672 13.20800781 15.90566406 13.98828125 15.90234375 C14.68477783 15.89710693 15.38127441 15.89187012 16.09887695 15.88647461 C18 16 18 16 21 17 C22.23180249 23.15901243 21.73030908 28.78675502 21 35 C20.67 35 20.34 35 20 35 C20 29.39 20 23.78 20 18 C18.66324219 18.03480469 17.32648437 18.06960937 15.94921875 18.10546875 C14.19532505 18.13360608 12.44141778 18.1609063 10.6875 18.1875 C9.80642578 18.21263672 8.92535156 18.23777344 8.01757812 18.26367188 C7.17001953 18.27333984 6.32246094 18.28300781 5.44921875 18.29296875 C4.66893311 18.3086792 3.88864746 18.32438965 3.0847168 18.34057617 C0.43615283 17.90788537 -0.42619269 17.1463262 -2 15 C-2.40971773 10.30736629 -2.12987347 5.71873609 -2 1 C-8.6 1 -15.2 1 -22 1 C-22.33 5.95 -22.66 10.9 -23 16 C-23.33 16 -23.66 16 -24 16 C-24.02684679 13.35409986 -24.04676357 10.70846904 -24.0625 8.0625 C-24.07087891 7.30775391 -24.07925781 6.55300781 -24.08789062 5.77539062 C-24.09652441 3.85005687 -24.05224333 1.92464419 -24 0 C-19.3945015 -4.6054985 -5.13371061 -2.3694049 0 0 Z " fill="#1D2666" transform="translate(933,69)"/>
<path d="M0 0 C2.64 0 5.28 0 8 0 C7.67 0.66 7.34 1.32 7 2 C6.96888686 5.21798812 7.06751096 8.42398057 7.16015625 11.640625 C6.99469738 15.11122574 6.24672291 17.77318775 5 21 C4.01 21 3.02 21 2 21 C2 19.35 2 17.7 2 16 C1.67 16 1.34 16 1 16 C0.67 22.93 0.34 29.86 0 37 C-0.33 37 -0.66 37 -1 37 C-1.02471738 32.21281308 -1.04286825 27.4256633 -1.05493164 22.63842773 C-1.05996065 21.00984042 -1.06678465 19.38125763 -1.07543945 17.75268555 C-1.08756769 15.41193528 -1.09324263 13.0712447 -1.09765625 10.73046875 C-1.10281754 10.00224411 -1.10797882 9.27401947 -1.11329651 8.52372742 C-1.11364279 5.40397712 -0.99455604 2.98366812 0 0 Z " fill="#484C67" transform="translate(358,189)"/>
<path d="M0 0 C0.66 0.33 1.32 0.66 2 1 C1.67 1.66 1.34 2.32 1 3 C0.88604047 4.6894776 0.8332559 6.38325163 0.81054688 8.07641602 C0.79382935 9.13413712 0.77711182 10.19185822 0.7598877 11.28163147 C0.74631226 12.42748215 0.73273682 13.57333282 0.71875 14.75390625 C0.70034058 15.92509506 0.68193115 17.09628387 0.66296387 18.30296326 C0.58404504 23.33200681 0.5163965 28.36118821 0.44775391 33.39038086 C0.39617359 37.05329319 0.33887142 40.7160848 0.28125 44.37890625 C0.26767456 45.52678116 0.25409912 46.67465607 0.2401123 47.85731506 C0.22339478 48.911884 0.20667725 49.96645294 0.18945312 51.05297852 C0.17066101 52.45290794 0.17066101 52.45290794 0.15148926 53.88111877 C0 56 0 56 -1 57 C-2.53781591 57.09902107 -4.08009444 57.13079567 -5.62109375 57.1328125 C-7.02391602 57.13474609 -7.02391602 57.13474609 -8.45507812 57.13671875 C-9.43927734 57.13285156 -10.42347656 57.12898438 -11.4375 57.125 C-12.90799805 57.13080078 -12.90799805 57.13080078 -14.40820312 57.13671875 C-15.34470703 57.13542969 -16.28121094 57.13414062 -17.24609375 57.1328125 C-18.54051392 57.13112061 -18.54051392 57.13112061 -19.86108398 57.12939453 C-22 57 -22 57 -24 56 C-24 45.44 -24 34.88 -24 24 C-23.67 24 -23.34 24 -23 24 C-22.67 33.9 -22.34 43.8 -22 54 C-14.14032459 54.84102983 -14.14032459 54.84102983 -6.375 55.0625 C-5.11816406 55.04896484 -5.11816406 55.04896484 -3.8359375 55.03515625 C-2.92714844 55.01775391 -2.92714844 55.01775391 -2 55 C-1.9845388 54.01067978 -1.9845388 54.01067978 -1.96876526 53.00137329 C-1.86084621 46.1560851 -1.74623661 39.31093246 -1.62768555 32.46582031 C-1.58428978 29.90888293 -1.5426182 27.35191569 -1.50268555 24.79492188 C-1.44509531 21.12621041 -1.38136862 17.45764989 -1.31640625 13.7890625 C-1.29969376 12.64007477 -1.28298126 11.49108704 -1.26576233 10.30728149 C-1.24581711 9.2463327 -1.22587189 8.18538391 -1.20532227 7.09228516 C-1.18977798 6.15518707 -1.1742337 5.21808899 -1.15821838 4.25259399 C-1 2 -1 2 0 0 Z " fill="#0C115A" transform="translate(829,112)"/>
<path d="M0 0 C0.33 1.32 0.66 2.64 1 4 C0.27683594 4.47179687 0.27683594 4.47179687 -0.4609375 4.953125 C-5.28566092 8.0838631 -5.28566092 8.0838631 -8 13 C-8 13.66 -8 14.32 -8 15 C-9.32 14.34 -10.64 13.68 -12 13 C-12 12.67 -12 12.34 -12 12 C-14.33294775 11.95758277 -16.66702567 11.95907063 -19 12 C-20.82642214 13.82642214 -20.42822362 16.65686197 -20.625 19.125 C-20.72039063 20.24132812 -20.81578125 21.35765625 -20.9140625 22.5078125 C-21.11132919 26.60179865 -21.11132919 26.60179865 -20 33 C-15.05 33.33 -10.1 33.66 -5 34 C-5 34.33 -5 34.66 -5 35 C-7.60478883 35.0809313 -10.20706653 35.14045434 -12.8125 35.1875 C-13.55048828 35.21263672 -14.28847656 35.23777344 -15.04882812 35.26367188 C-20.51573727 35.33788331 -20.51573727 35.33788331 -22.71875 33.80078125 C-24.43686002 31.38599856 -24.34405535 29.84052508 -24.29296875 26.89453125 C-24.28330078 25.91162109 -24.27363281 24.92871094 -24.26367188 23.91601562 C-24.23853516 22.89185547 -24.21339844 21.86769531 -24.1875 20.8125 C-24.16719727 19.25885742 -24.16719727 19.25885742 -24.14648438 17.67382812 C-24.11111389 15.11536301 -24.06175544 12.5579422 -24 10 C-22.98679687 9.90203125 -21.97359375 9.8040625 -20.9296875 9.703125 C-19.57802945 9.55294077 -18.22647183 9.40185077 -16.875 9.25 C-16.20984375 9.188125 -15.5446875 9.12625 -14.859375 9.0625 C-8.96952495 8.36957646 -4.9250637 6.31007644 -1.125 1.75 C-0.75375 1.1725 -0.3825 0.595 0 0 Z " fill="#1B1A5E" transform="translate(618,97)"/>
<path d="M0 0 C0.66 0 1.32 0 2 0 C2.6875 1.625 2.6875 1.625 3 4 C2.5153125 4.804375 2.030625 5.60875 1.53125 6.4375 C-0.62605666 11.45653999 -0.32328182 15.97854316 -0.1875 21.375 C-0.17396484 22.39722656 -0.16042969 23.41945312 -0.14648438 24.47265625 C-0.11130217 26.98232049 -0.06207539 29.4908809 0 32 C0.66 32 1.32 32 2 32 C2.99 37.445 2.99 37.445 4 43 C4.66 43 5.32 43 6 43 C6.66 43.99 7.32 44.98 8 46 C7.67 46.99 7.34 47.98 7 49 C2.48287211 42.94792573 -0.30534318 37.36383249 -2 30 C-2.18433594 29.21367187 -2.36867188 28.42734375 -2.55859375 27.6171875 C-4.16036242 18.11997501 -3.10156462 9.04623013 0 0 Z " fill="#191958" transform="translate(658,108)"/>
<path d="M0 0 C0.33 0 0.66 0 1 0 C1.03758423 1.49442627 1.03758423 1.49442627 1.07592773 3.01904297 C1.67058829 28.5249281 1.67058829 28.5249281 3 54 C-1.53870049 49.46129951 -1.1280985 41.46984288 -1.23046875 35.390625 C-1.22782623 33.01037504 -1.21316851 30.63011302 -1.1875 28.25 C-1.18105469 27.01604492 -1.17460938 25.78208984 -1.16796875 24.51074219 C-1.09865687 16.30811452 -0.85924864 8.16286212 0 0 Z " fill="#282859" transform="translate(909,105)"/>
<path d="M0 0 C2.125 1.5 2.125 1.5 4 4 C3.12633886 10.33404329 0.47639637 16.13358529 -2 22 C-5.83238786 21.60693458 -8.82729908 20.67791377 -12.25 19 C-17.0974653 16.72078292 -21.69156722 16.22164646 -27 16 C-27 15.67 -27 15.34 -27 15 C-25.083412 14.97287847 -23.1667127 14.95354903 -21.25 14.9375 C-19.64898438 14.92009766 -19.64898438 14.92009766 -18.015625 14.90234375 C-15.46631499 14.98489913 -13.42066409 15.25382442 -11 16 C-10.67 15.34 -10.34 14.68 -10 14 C-9.34 14 -8.68 14 -8 14 C-8 14.66 -8 15.32 -8 16 C-7.01 15.67 -6.02 15.34 -5 15 C-4.01 16.485 -4.01 16.485 -3 18 C-2.32243118 16.44219668 -1.65840543 14.87849904 -1 13.3125 C-0.62875 12.44238281 -0.2575 11.57226562 0.125 10.67578125 C1.42976331 6.68576846 1.32135007 3.9640502 0 0 Z " fill="#121A64" transform="translate(545,90)"/>
<path d="M0 0 C2.5 1.6875 2.5 1.6875 4.5 4.6875 C4.75760279 7.38202521 4.58900053 9.97298375 4.5 12.6875 C4.17 12.6875 3.84 12.6875 3.5 12.6875 C3.43683594 12.07261719 3.37367188 11.45773438 3.30859375 10.82421875 C2.92407968 8.28642586 2.4469086 6.07590786 1.5 3.6875 C-3.10519778 0.49205664 -7.05359031 0.21536478 -12.55078125 1.02734375 C-14.80026221 1.58565824 -14.80026221 1.58565824 -16.4375 4.25 C-16.788125 5.054375 -17.13875 5.85875 -17.5 6.6875 C-18.16 6.6875 -18.82 6.6875 -19.5 6.6875 C-18.84 9.9875 -18.18 13.2875 -17.5 16.6875 C-16.84 16.6875 -16.18 16.6875 -15.5 16.6875 C-14.84 18.0075 -14.18 19.3275 -13.5 20.6875 C-16.91889073 19.22226111 -19.3141602 17.73206257 -21.5 14.6875 C-22.29817355 10.8430861 -22.38268532 7.31137146 -20.4765625 3.8046875 C-15.31010198 -2.67687206 -7.3621534 -2.76080752 0 0 Z " fill="#171F60" transform="translate(777.5,54.3125)"/>
<path d="M0 0 C2.87407146 0.12970169 5.59513801 0.37446084 8.4375 0.75 C9.60249023 0.88148437 9.60249023 0.88148437 10.79101562 1.015625 C14.6563565 1.49504712 16.66616399 1.77744266 20 4 C13.73 4 7.46 4 1 4 C0.67 20.83 0.34 37.66 0 55 C-0.33 55 -0.66 55 -1 55 C-1.1932509 47.48890521 -1.37074072 39.97755835 -1.53710938 32.46582031 C-1.59562316 29.90876778 -1.65778776 27.35179613 -1.72363281 24.79492188 C-1.81747739 21.12645189 -1.8983254 17.45789432 -1.9765625 13.7890625 C-2.00875885 12.64007477 -2.0409552 11.49108704 -2.0741272 10.30728149 C-2.09429901 9.2463327 -2.11447083 8.18538391 -2.13525391 7.09228516 C-2.15746002 6.15518707 -2.17966614 5.21808899 -2.20254517 4.25259399 C-2 2 -2 2 0 0 Z " fill="#03095A" transform="translate(590,73)"/>
<path d="M0 0 C0.99 0 1.98 0 3 0 C2.67 13.2 2.34 26.4 2 40 C2.66 40 3.32 40 4 40 C3.67 40.66 3.34 41.32 3 42 C2.34 41.67 1.68 41.34 1 41 C-0.14542698 36.28544967 -0.13154111 31.58070274 -0.09765625 26.7578125 C-0.0962413 25.98944061 -0.09482635 25.22106873 -0.09336853 24.42941284 C-0.08780683 21.99456761 -0.0752616 19.55981706 -0.0625 17.125 C-0.05748004 15.46614717 -0.05291801 13.80729288 -0.04882812 12.1484375 C-0.03784998 8.0989223 -0.02061206 4.04947716 0 0 Z " fill="#343362" transform="translate(803,128)"/>
<path d="M0 0 C0.66 0 1.32 0 2 0 C3.71432497 3.72708992 4.24552013 6.61729034 4.22705078 10.70825195 C4.22689972 11.82903641 4.22674866 12.94982086 4.22659302 14.10456848 C4.21627045 15.3036937 4.20594788 16.50281891 4.1953125 17.73828125 C4.19106766 19.59213692 4.19106766 19.59213692 4.18673706 21.48344421 C4.17745218 24.75664997 4.15950633 28.02965644 4.1373291 31.30279541 C4.11680817 34.64780848 4.10789268 37.99283026 4.09765625 41.33789062 C4.07561795 47.89200474 4.04215661 54.44598608 4 61 C3.67 61 3.34 61 3 61 C2.96241577 59.19366089 2.96241577 59.19366089 2.92407227 57.35083008 C2.82891295 52.82372897 2.72897095 48.29674324 2.62768555 43.76977539 C2.58474216 41.82156093 2.54304456 39.87331854 2.50268555 37.92504883 C3.05355612 19.03404331 3.05355612 19.03404331 -1 1 C-0.67 0.67 -0.34 0.34 0 0 Z " fill="#1A165A" transform="translate(855,108)"/>
<path d="M0 0 C2.64 0 5.28 0 8 0 C7.67 0.99 7.34 1.98 7 3 C5.35 2.67 3.7 2.34 2 2 C2 9.59 2 17.18 2 25 C3.98 25 5.96 25 8 25 C8 25.66 8 26.32 8 27 C5.36 27 2.72 27 0 27 C0 18.09 0 9.18 0 0 Z " fill="#32334C" transform="translate(607,202)"/>
<path d="M0 0 C1.33333333 0 2.66666667 0 4 0 C4 2.97 4 5.94 4 9 C-2.435 9.495 -2.435 9.495 -9 10 C-8.67 8.35 -8.34 6.7 -8 5 C-5.625 3.875 -5.625 3.875 -3 3 C-2.46375 2.46375 -1.9275 1.9275 -1.375 1.375 C-0.92125 0.92125 -0.4675 0.4675 0 0 Z " fill="#323656" transform="translate(659,209)"/>
<path d="M0 0 C0.33 0 0.66 0 1 0 C1.33 15.51 1.66 31.02 2 47 C6.11460014 48.02865003 10.04019864 48.33564675 14.25 48.5625 C15.36761719 48.62727539 15.36761719 48.62727539 16.5078125 48.69335938 C18.338349 48.79896725 20.16915176 48.89994201 22 49 C22 49.33 22 49.66 22 50 C14.74 50 7.48 50 0 50 C0 33.5 0 17 0 0 Z " fill="#07015A" transform="translate(859,119)"/>
<path d="M0 0 C0 4.04022185 -1.75127759 6.76385782 -4 10 C-4.886875 10.804375 -5.77375 11.60875 -6.6875 12.4375 C-9.30530693 15.33831308 -9.57710926 17.19397568 -9.8203125 21.03515625 C-10 23 -10 23 -11.0625 25.875 C-12.3783539 30.26117967 -12.16169507 34.45457206 -12 39 C-12.99 39.495 -12.99 39.495 -14 40 C-14.66043721 26.73621939 -13.62055264 15.35388174 -4.68359375 4.8046875 C-3.15511104 3.16626752 -1.60125289 1.56718368 0 0 Z " fill="#242461" transform="translate(392,93)"/>
<path d="M0 0 C4.81040317 5.67177013 5.28611972 12.7992621 4.81640625 20.02734375 C4.10376586 27.61575977 2.63062312 34.22283684 -1 41 C-2.26561025 37.20316924 -1.45230947 36.0717996 -0.0625 32.375 C1.75723375 26.7772723 2.39080751 21.81663032 2.375 15.9375 C2.37681274 14.84864502 2.37681274 14.84864502 2.37866211 13.73779297 C2.30071336 9.93300338 1.83991037 7.30447902 0 4 C0 2.68 0 1.36 0 0 Z " fill="#182269" transform="translate(643,72)"/>
<path d="M0 0 C2 1 2 1 3.1875 3.4375 C5.68758432 6.97210197 7.80751993 7.27715861 12 8 C15.61092397 7.65610248 18.67710557 6.42409761 22 5 C22 5.99 22 6.98 22 8 C18.21772722 11.4040455 14.30881107 11.51796487 9.4453125 11.34375 C5.69355234 10.81634602 3.66709997 9.66709997 1 7 C0.125 3.25 0.125 3.25 0 0 Z " fill="#33354E" transform="translate(421,218)"/>
<path d="M0 0 C0.99 0 1.98 0 3 0 C5.86536005 7.52157012 6.87863473 16.62562086 3.65625 24.12890625 C2.20977092 26.52719585 0.71370702 28.78646176 -1 31 C-1.99 30.67 -2.98 30.34 -4 30 C-3.38125 29.278125 -2.7625 28.55625 -2.125 27.8125 C1.5520762 22.94578151 2.27636093 19.13210477 2.25 13.0625 C2.25515625 11.87785156 2.2603125 10.69320312 2.265625 9.47265625 C1.99993706 5.99917717 1.24620553 3.23914532 0 0 Z " fill="#181856" transform="translate(434,113)"/>
<path d="M0 0 C0.33 1.32 0.66 2.64 1 4 C0.27683594 4.47179687 0.27683594 4.47179687 -0.4609375 4.953125 C-5.28566092 8.0838631 -5.28566092 8.0838631 -8 13 C-8 13.66 -8 14.32 -8 15 C-9.32 14.34 -10.64 13.68 -12 13 C-12 12.67 -12 12.34 -12 12 C-14.33294775 11.95758277 -16.66702567 11.95907063 -19 12 C-20.73956658 13.73956658 -20.37190386 16.1936622 -20.5625 18.5625 C-20.64628906 19.57441406 -20.73007812 20.58632812 -20.81640625 21.62890625 C-20.87699219 22.41136719 -20.93757812 23.19382812 -21 24 C-21.33 24 -21.66 24 -22 24 C-22 19.71 -22 15.42 -22 11 C-20.98679687 10.76925781 -19.97359375 10.53851563 -18.9296875 10.30078125 C-8.96591017 8.06184421 -8.96591017 8.06184421 -1 2 C-0.67 1.34 -0.34 0.68 0 0 Z " fill="#0C0F5C" transform="translate(618,97)"/>
<path d="M0 0 C0.33 1.65 0.66 3.3 1 5 C-0.21807138 6.15762119 -1.45001235 7.3006583 -2.6875 8.4375 C-3.71423828 9.39462891 -3.71423828 9.39462891 -4.76171875 10.37109375 C-7.22289422 12.16221098 -9.00816574 12.62798558 -12 13 C-11.6875 11.0625 -11.6875 11.0625 -11 9 C-10.01 8.67 -9.02 8.34 -8 8 C-7.31513275 6.67592331 -6.65129797 5.34090759 -6 4 C-2.44444444 0 -2.44444444 0 0 0 Z " fill="#6475F4" transform="translate(237,212)"/>
<path d="M0 0 C1.19625 0.165 2.3925 0.33 3.625 0.5 C13.40411191 1.57801234 23.25540135 1.25736757 33 0 C29.07411662 3.92588338 24.13489269 4.26051569 18.83178711 4.328125 C17.73942749 4.32039062 17.73942749 4.32039062 16.625 4.3125 C15.49880249 4.31056641 15.49880249 4.31056641 14.34985352 4.30859375 C8.98967313 4.21530224 4.82559429 3.46413326 0 1 C0 0.67 0 0.34 0 0 Z " fill="#0C1156" transform="translate(919,166)"/>
<path d="M0 0 C0.33 0.99 0.66 1.98 1 3 C-0.14453125 5.26953125 -0.14453125 5.26953125 -1.8125 7.8125 C-6.19786494 14.53117075 -7.31226839 20.00802497 -7.1875 27.875 C-7.18685547 28.63941406 -7.18621094 29.40382813 -7.18554688 30.19140625 C-7.14725769 35.20303519 -6.70632215 40.03879323 -6 45 C-10.69395976 40.30604024 -9.30486793 32.20229827 -9.3190918 26.0012207 C-9.22908878 19.26260758 -8.5448264 13.85519249 -5 8 C-4.54496094 7.22011719 -4.08992188 6.44023438 -3.62109375 5.63671875 C-2.459795 3.72107209 -1.26135817 1.85068125 0 0 Z " fill="#2A2963" transform="translate(484,98)"/>
<path d="M0 0 C0 3 0 3 -1.6875 5.125 C-4.20933322 7.16972964 -5.81390075 7.64598897 -9 8 C-9 8.33 -9 8.66 -9 9 C-11.31 9.66 -13.62 10.32 -16 11 C-16 10.34 -16 9.68 -16 9 C-16.66 9 -17.32 9 -18 9 C-19.38938077 7.03852126 -20.7260411 5.03833424 -22 3 C-21.67 2.34 -21.34 1.68 -21 1 C-20.566875 1.474375 -20.13375 1.94875 -19.6875 2.4375 C-16.59812821 5.29802943 -13.14606416 5.32695435 -9.0703125 5.296875 C-5.37703401 4.7672728 -2.59283723 2.59283723 0 0 Z " fill="#0B1162" transform="translate(709,141)"/>
<path d="M0 0 C5.37615192 8.06422787 6.66308338 17.49895131 7 27 C6.34 26.67 5.68 26.34 5 26 C4.76171875 23.99609375 4.76171875 23.99609375 4.6875 21.4375 C4.39735224 17.43801226 3.71989479 15.12426193 1.375 11.875 C-0.77389935 8.85792069 -1.29850936 7.19367116 -0.8125 3.5 C-0.544375 2.345 -0.27625 1.19 0 0 Z " fill="#6675E4" transform="translate(236,89)"/>
<path d="M0 0 C2.55456702 1.89866468 2.99185066 2.95847963 3.6171875 6.14453125 C3.70226562 7.35496094 3.78734375 8.56539062 3.875 9.8125 C3.97554687 11.01519531 4.07609375 12.21789062 4.1796875 13.45703125 C3.97904264 17.41322443 3.08360381 19.65930505 1 23 C-1.1875 24.375 -1.1875 24.375 -3 25 C-2.2575 23.5459375 -2.2575 23.5459375 -1.5 22.0625 C1.17533609 15.1417949 0.22360047 7.28771891 0 0 Z " fill="#151359" transform="translate(713,116)"/>
<path d="M0 0 C0.75 1.75 0.75 1.75 1 4 C-1.21867135 6.77333918 -2.60620325 7.86873442 -6 9 C-7.39439664 9.06665376 -8.79169875 9.08538199 -10.1875 9.0625 C-12.0746875 9.0315625 -12.0746875 9.0315625 -14 9 C-14 6.36 -14 3.72 -14 1 C-12.35 1 -10.7 1 -9 1 C-9.99 1.33 -10.98 1.66 -12 2 C-12 3.65 -12 5.3 -12 7 C-5.88593722 5.4498971 -5.88593722 5.4498971 -0.9375 1.8125 C-0.628125 1.214375 -0.31875 0.61625 0 0 Z " fill="#31344E" transform="translate(572,208)"/>
<path d="M0 0 C0.33 0 0.66 0 1 0 C0.97054354 6.36259525 -0.28817366 10.47386254 -4.37890625 15.3984375 C-6.44651072 17.44113107 -8.13506826 18.45798589 -11 19 C-11.99 18.67 -12.98 18.34 -14 18 C-13.23816406 17.55914062 -13.23816406 17.55914062 -12.4609375 17.109375 C-5.76078269 12.74298198 -3.08962317 7.23252697 0 0 Z " fill="#18185F" transform="translate(335,122)"/>
<path d="M0 0 C0.99 0 1.98 0 3 0 C3 4.29 3 8.58 3 13 C3.66 12.67 4.32 12.34 5 12 C6.54023996 11.93049459 8.08334988 11.91547643 9.625 11.9375 C10.85089844 11.95103516 10.85089844 11.95103516 12.1015625 11.96484375 C13.04128906 11.98224609 13.04128906 11.98224609 14 12 C13.67 12.99 13.34 13.98 13 15 C11.37536158 15.05395478 9.75021459 15.09277195 8.125 15.125 C7.22007812 15.14820313 6.31515625 15.17140625 5.3828125 15.1953125 C3 15 3 15 1 13 C0.5859375 9.9609375 0.5859375 9.9609375 0.375 6.375 C0.30023438 5.18648437 0.22546875 3.99796875 0.1484375 2.7734375 C0.09945313 1.85820312 0.05046875 0.94296875 0 0 Z " fill="#31344E" transform="translate(394,190)"/>
<path d="M0 0 C1.09375 3.734375 1.09375 3.734375 0.25 6.125 C-1 8 -1 8 -4 10 C-4.33 10.99 -4.66 11.98 -5 13 C-5.99 13 -6.98 13 -8 13 C-8 13.66 -8 14.32 -8 15 C-8.66 15 -9.32 15 -10 15 C-8.67494706 8.5403669 -4.40590065 4.61082626 0 0 Z " fill="#0F0E5F" transform="translate(669,93)"/>
<path d="M0 0 C-6.73224155 3.09683111 -12.39902541 4.13878546 -19.875 4.0625 C-21.02742187 4.05347656 -22.17984375 4.04445312 -23.3671875 4.03515625 C-24.23601563 4.02355469 -25.10484375 4.01195312 -26 4 C-26 3.34 -26 2.68 -26 2 C-24.92878906 1.93941406 -23.85757813 1.87882813 -22.75390625 1.81640625 C-21.35675609 1.73201463 -19.95962143 1.64736594 -18.5625 1.5625 C-17.50192383 1.50352539 -17.50192383 1.50352539 -16.41992188 1.44335938 C-12.91309581 1.52375562 -12.91309581 1.52375562 -10 0 C-3.57142857 -1.19047619 -3.57142857 -1.19047619 0 0 Z " fill="#12185B" transform="translate(538,167)"/>
<path d="M0 0 C20.53191489 -0.76595745 20.53191489 -0.76595745 30 4 C28.1875 5.0625 28.1875 5.0625 26 6 C25.01 5.67 24.02 5.34 23 5 C23 4.67 23 4.34 23 4 C15.36190145 2.02462968 7.8667126 1.42522771 0 1 C0 0.67 0 0.34 0 0 Z " fill="#0D115C" transform="translate(310,54)"/>
<path d="M0 0 C2.63664741 0 4.50746285 0.25223886 7 1 C8 2 8 2 8.09765625 3.84765625 C8.04882812 6.92382812 8.04882812 6.92382812 8 10 C7 8 6 6 5 4 C3.68 4 2.36 4 1 4 C0.80664062 4.84304687 0.61328125 5.68609375 0.4140625 6.5546875 C0.02347656 8.19824219 0.02347656 8.19824219 -0.375 9.875 C-0.63023437 10.96554688 -0.88546875 12.05609375 -1.1484375 13.1796875 C-2 16 -2 16 -4 18 C-3.86722656 17.35933594 -3.73445312 16.71867187 -3.59765625 16.05859375 C-2.77456512 12.02724962 -1.96475926 8.01950718 -1.4375 3.9375 C-1 1 -1 1 0 0 Z " fill="#6172E0" transform="translate(141,76)"/>
<path d="M0 0 C0.66 0 1.32 0 2 0 C2 5.94 2 11.88 2 18 C-0.64 17.67 -3.28 17.34 -6 17 C-6 16.67 -6 16.34 -6 16 C-4.35 15.67 -2.7 15.34 -1 15 C-0.67 14.01 -0.34 13.02 0 12 C-0.66 11.67 -1.32 11.34 -2 11 C-1.34 10.01 -0.68 9.02 0 8 C0.16666667 5.5 0.16666667 5.5 0 3 C0 2.01 0 1.02 0 0 Z " fill="#31344D" transform="translate(555,211)"/>
<path d="M0 0 C1.09054687 0.02320312 2.18109375 0.04640625 3.3046875 0.0703125 C4.40039062 0.08835937 5.49609375 0.10640625 6.625 0.125 C7.46804688 0.14820312 8.31109375 0.17140625 9.1796875 0.1953125 C6.27876248 2.12926251 5.28294013 2.49663191 1.9921875 2.8203125 C0.7340625 2.9440625 -0.5240625 3.0678125 -1.8203125 3.1953125 C-2.15562665 5.15330764 -2.48850393 7.11172024 -2.8203125 9.0703125 C-3.0059375 10.16085938 -3.1915625 11.25140625 -3.3828125 12.375 C-3.87140958 15.04903214 -3.87140958 15.04903214 -3.8203125 17.1953125 C-4.4803125 17.1953125 -5.1403125 17.1953125 -5.8203125 17.1953125 C-5.70662039 14.73597259 -5.57988599 12.2785216 -5.4453125 9.8203125 C-5.414375 9.12164062 -5.3834375 8.42296875 -5.3515625 7.703125 C-4.92683569 0.34119361 -4.92683569 0.34119361 0 0 Z " fill="#272664" transform="translate(898.8203125,84.8046875)"/>
<path d="M0 0 C0.66 0 1.32 0 2 0 C2.88725556 2.46522274 3.11054304 3.67360714 2.2578125 6.19140625 C1.69707031 7.36509766 1.69707031 7.36509766 1.125 8.5625 C-1.22914192 14.00949734 -1.7761181 19.1119061 -2 25 C-2.33 25 -2.66 25 -3 25 C-3.35021655 16.11487651 -2.89452883 8.44237574 0 0 Z " fill="#272561" transform="translate(658,108)"/>
<path d="M0 0 C0.66 0.33 1.32 0.66 2 1 C-2.86770985 9.86172819 -8.17240602 16.86767792 -17 22 C-17.66 22 -18.32 22 -19 22 C-19 21.01 -19 20.02 -19 19 C-17.989375 18.649375 -16.97875 18.29875 -15.9375 17.9375 C-7.93192294 14.46033017 -3.72447091 7.56908605 0 0 Z " fill="#192162" transform="translate(736,144)"/>
<path d="M0 0 C2.22808159 -0.10853983 4.45769932 -0.18583307 6.6875 -0.25 C7.92886719 -0.29640625 9.17023437 -0.3428125 10.44921875 -0.390625 C14.59266602 0.06519978 16.12582101 1.04128634 19 4 C20.3125 7.25 20.3125 7.25 21 10 C20.01 10.495 20.01 10.495 19 11 C18.1028125 9.576875 18.1028125 9.576875 17.1875 8.125 C14.73907014 4.62724305 13.26256723 3.27380976 9.08203125 2.3671875 C8.00308594 2.20476562 6.92414062 2.04234375 5.8125 1.875 C4.18248047 1.62363281 4.18248047 1.62363281 2.51953125 1.3671875 C1.27236328 1.18542969 1.27236328 1.18542969 0 1 C0 0.67 0 0.34 0 0 Z " fill="#12155B" transform="translate(693,105)"/>
<path d="M0 0 C1.5 1 1.5 1 3 3 C3.52484062 8.42335303 3.36359242 11.51521011 0 16 C-1.02721759 12.91834724 -1.37840055 10.14650907 -1.71875 6.9375 C-1.97252769 4.78797684 -1.97252769 4.78797684 -3 2 C-2.01 1.34 -1.02 0.68 0 0 Z " fill="#05095D" transform="translate(620,81)"/>
<path d="M0 0 C1.39456452 0.00667256 2.78911118 0.01863093 4.18359375 0.03515625 C4.89451172 0.03966797 5.60542969 0.04417969 6.33789062 0.04882812 C8.09899388 0.06064761 9.86005411 0.07858362 11.62109375 0.09765625 C11.62109375 0.42765625 11.62109375 0.75765625 11.62109375 1.09765625 C6.85801938 2.05027112 2.45444095 2.18098982 -2.37890625 2.09765625 C-2.70890625 7.04765625 -3.03890625 11.99765625 -3.37890625 17.09765625 C-3.70890625 17.09765625 -4.03890625 17.09765625 -4.37890625 17.09765625 C-4.40575304 14.45175611 -4.42566982 11.80612529 -4.44140625 9.16015625 C-4.44978516 8.40541016 -4.45816406 7.65066406 -4.46679688 6.87304688 C-4.47543066 4.94771312 -4.43114958 3.02230044 -4.37890625 1.09765625 C-3.37890625 0.09765625 -3.37890625 0.09765625 0 0 Z " fill="#16175B" transform="translate(913.37890625,67.90234375)"/>
<path d="M0 0 C0.66 0 1.32 0 2 0 C2.19335938 0.65226562 2.38671875 1.30453125 2.5859375 1.9765625 C2.84632813 2.85054688 3.10671875 3.72453125 3.375 4.625 C3.64699219 5.54023437 3.91898437 6.45546875 4.19921875 7.3984375 C4.80525639 9.36732076 5.48050728 11.31507256 6.1875 13.25 C7.08417027 16.284884 7.14989592 18.85218566 7 22 C6.01 22 5.02 22 4 22 C3.79503906 20.74703125 3.59007812 19.4940625 3.37890625 18.203125 C3.10685726 16.55206909 2.83471707 14.90102821 2.5625 13.25 C2.42779297 12.425 2.29308594 11.6 2.15429688 10.75 C2.02216797 9.95078125 1.89003906 9.1515625 1.75390625 8.328125 C1.63345947 7.5949707 1.5130127 6.86181641 1.38891602 6.10644531 C1.00808324 4.04378041 0.53121105 2.02862484 0 0 Z " fill="#1B1C5F" transform="translate(334,91)"/>
<path d="M0 0 C0.66 0.99 1.32 1.98 2 3 C-5.26 2.67 -12.52 2.34 -20 2 C-13.55678414 -1.22160793 -7.0187563 -1.76731274 0 0 Z " fill="#0A105A" transform="translate(318,76)"/>
<path d="M0 0 C0.33 0 0.66 0 1 0 C1 3.3 1 6.6 1 10 C5.29 10 9.58 10 14 10 C14 10.66 14 11.32 14 12 C9.05 12 4.1 12 -1 12 C-1 4.125 -1 4.125 0 0 Z " fill="#090A51" transform="translate(895,93)"/>
<path d="M0 0 C1.485 0.99 1.485 0.99 3 2 C3 3.32 3 4.64 3 6 C3.66 6 4.32 6 5 6 C5.33 7.65 5.66 9.3 6 11 C6.66 11 7.32 11 8 11 C9.02611949 12.65071396 10.02308143 14.31970006 11 16 C12.58245275 17.75149165 12.58245275 17.75149165 14 19 C13.67 19.66 13.34 20.32 13 21 C0 7.35483871 0 7.35483871 0 0 Z " fill="#6E7AE2" transform="translate(150,91)"/>
<path d="M0 0 C2.5 1.8125 2.5 1.8125 5 4 C5 4.99 5 5.98 5 7 C-0.41538462 10.07692308 -0.41538462 10.07692308 -3.375 9.6875 C-3.91125 9.460625 -4.4475 9.23375 -5 9 C-2 7 -2 7 1 6 C1.33 5.34 1.66 4.68 2 4 C0.02 4 -1.96 4 -4 4 C-2.68 2.68 -1.36 1.36 0 0 Z " fill="#343750" transform="translate(657,219)"/>
<path d="M0 0 C0.33 0.66 0.66 1.32 1 2 C0.67 2.99 0.34 3.98 0 5 C-2.0625 5.6875 -2.0625 5.6875 -4 6 C-4 5.34 -4 4.68 -4 4 C-4.99 4.495 -4.99 4.495 -6 5 C-5.67 5.66 -5.34 6.32 -5 7 C-6.65 6.67 -8.3 6.34 -10 6 C-10 5.01 -10 4.02 -10 3 C-9.46375 2.87625 -8.9275 2.7525 -8.375 2.625 C-5.5361714 1.87793984 -2.77776798 0.94696636 0 0 Z " fill="#363F5C" transform="translate(323,202)"/>
<path d="M0 0 C0 3.51716303 -0.82445585 4.37121748 -3 7 C-2.01 7 -1.02 7 0 7 C-3.17320782 10.53586014 -5.16743695 12.58578031 -10 13 C-8.48446596 9.52224821 -6.4226544 7.0442016 -3.875 4.25 C-3.15054688 3.45078125 -2.42609375 2.6515625 -1.6796875 1.828125 C-0.84824219 0.92320313 -0.84824219 0.92320313 0 0 Z " fill="#6874E9" transform="translate(74,56)"/>
<path d="M0 0 C1.43931117 0.45261358 2.87638999 0.91232979 4.3125 1.375 C5.11300781 1.63023437 5.91351562 1.88546875 6.73828125 2.1484375 C9 3 9 3 12 5 C12 5.66 12 6.32 12 7 C14.64 7.66 17.28 8.32 20 9 C14.41588013 10.39602997 11.02006396 8.53371153 6 6 C3.74097206 4.46581764 1.96815 2.91635658 0 1 C0 0.67 0 0.34 0 0 Z " fill="#161A5D" transform="translate(670,160)"/>
<path d="M0 0 C-1.01320313 0.48919922 -1.01320313 0.48919922 -2.046875 0.98828125 C-3.38492187 1.64376953 -3.38492187 1.64376953 -4.75 2.3125 C-5.63171875 2.74175781 -6.5134375 3.17101562 -7.421875 3.61328125 C-9.81600215 4.90103146 -11.87776958 6.30915754 -14 8 C-14.99 7.34 -15.98 6.68 -17 6 C-15.39805929 5.01719585 -13.79336258 4.03888283 -12.1875 3.0625 C-11.29417969 2.51722656 -10.40085937 1.97195312 -9.48046875 1.41015625 C-5.86405592 -0.64578868 -3.93724498 -1.22190362 0 0 Z " fill="#10125B" transform="translate(507,87)"/>
<path d="M0 0 C0.66 0.33 1.32 0.66 2 1 C1.2575 1.721875 0.515 2.44375 -0.25 3.1875 C-2.69290515 5.68592573 -4.8681047 8.23643202 -7 11 C-7 10.01 -7 9.02 -7 8 C-7.66 8 -8.32 8 -9 8 C-9 8.66 -9 9.32 -9 10 C-10.32 9.67 -11.64 9.34 -13 9 C-8.71 6.03 -4.42 3.06 0 0 Z " fill="#6D78F1" transform="translate(92,42)"/>
<path d="M0 0 C3.44428265 1.44781793 5.36130962 3.27694609 7.75 6.125 C8.36359375 6.84945312 8.9771875 7.57390625 9.609375 8.3203125 C10.29773438 9.15175781 10.29773438 9.15175781 11 10 C10.67 10.66 10.34 11.32 10 12 C5.64099879 9.44145581 3.49524815 7.85955648 2 3 C1.34 2.01 0.68 1.02 0 0 Z " fill="#0D1860" transform="translate(632,60)"/>
<path d="M0 0 C2.5625 2.1875 2.5625 2.1875 5 5 C5.0625 7.625 5.0625 7.625 4 10 C1.9375 11.8125 1.9375 11.8125 0 13 C0.185625 12.38125 0.37125 11.7625 0.5625 11.125 C1.23686176 8.95839822 1.23686176 8.95839822 0 7 C0.165 6.360625 0.33 5.72125 0.5 5.0625 C1.23602403 2.82334576 1.23602403 2.82334576 0 0 Z " fill="#0F1660" transform="translate(544,150)"/>
<path d="M0 0 C1.65 1.65 3.3 3.3 5 5 C4.01 5 3.02 5 2 5 C2 4.34 2 3.68 2 3 C0.02 3 -1.96 3 -4 3 C-4.33 3.99 -4.66 4.98 -5 6 C-6.65 6 -8.3 6 -10 6 C-7.27521226 2.63408573 -3.93143208 1.55773724 0 0 Z " fill="#16195B" transform="translate(538,142)"/>
<path d="M0 0 C0.66 0.33 1.32 0.66 2 1 C2 6.28 2 11.56 2 17 C1.01 16.67 0.02 16.34 -1 16 C-0.67 10.72 -0.34 5.44 0 0 Z " fill="#32354D" transform="translate(600,211)"/>
<path d="M0 0 C0.99 0.66 1.98 1.32 3 2 C2.67 2.66 2.34 3.32 2 4 C2.66 4 3.32 4 4 4 C3.34 5.65 2.68 7.3 2 9 C0.02 8.34 -1.96 7.68 -4 7 C-3.525625 6.401875 -3.05125 5.80375 -2.5625 5.1875 C-0.83534256 2.99617076 -0.83534256 2.99617076 0 0 Z " fill="#3C405F" transform="translate(364,205)"/>
<path d="M0 0 C0 0.33 0 0.66 0 1 C-1.08539062 1.06058594 -2.17078125 1.12117188 -3.2890625 1.18359375 C-4.73438486 1.26806064 -6.17969682 1.35270551 -7.625 1.4375 C-8.33785156 1.47681641 -9.05070313 1.51613281 -9.78515625 1.55664062 C-13.91803682 1.80309681 -17.92269024 2.23470053 -22 3 C-21.67 2.01 -21.34 1.02 -21 0 C-6.21867882 -1.33257403 -6.21867882 -1.33257403 0 0 Z " fill="#222363" transform="translate(825,86)"/>
<path d="M0 0 C1.98 0.495 1.98 0.495 4 1 C3.95875 2.11375 3.9175 3.2275 3.875 4.375 C3.58878141 8.04366025 3.58878141 8.04366025 6 10 C4.02 10 2.04 10 0 10 C0.66 9.67 1.32 9.34 2 9 C1.484375 8.071875 0.96875 7.14375 0.4375 6.1875 C-1 3 -1 3 0 0 Z " fill="#3D415E" transform="translate(596,219)"/>
<path d="M0 0 C5.68502535 1.64566523 10.76681636 4.29032784 16 7 C13.34397374 8.01299606 12.21604293 8.07672553 9.4921875 7.109375 C8.62851562 6.66078125 7.76484375 6.2121875 6.875 5.75 C6.00617188 5.31171875 5.13734375 4.8734375 4.2421875 4.421875 C2 3 2 3 0 0 Z " fill="#0C1056" transform="translate(394,161)"/>
<path d="M0 0 C4.0013028 0.61558505 6.77824353 2.63737859 10 5 C10.33 5.66 10.66 6.32 11 7 C7 7 7 7 4 6 C4 5.01 4 4.02 4 3 C2.68 3.33 1.36 3.66 0 4 C0 2.68 0 1.36 0 0 Z " fill="#616FE8" transform="translate(112,136)"/>
<path d="M0 0 C1.9375 0.625 1.9375 0.625 4 2 C5.40540541 7.18918919 5.40540541 7.18918919 4 10 C1.2027092 7.93243723 0.97307727 6.85559629 0.3125 3.3125 C0.209375 2.219375 0.10625 1.12625 0 0 Z " fill="#3C3F61" transform="translate(506,220)"/>
<path d="M0 0 C2.99220268 1.36370299 5.29026529 2.94908083 7.75 5.125 C8.67039063 5.93324219 8.67039063 5.93324219 9.609375 6.7578125 C10.06828125 7.16773438 10.5271875 7.57765625 11 8 C10.01 8.33 9.02 8.66 8 9 C7.34 8.67 6.68 8.34 6 8 C6 7.34 6 6.68 6 6 C5.38125 5.7525 4.7625 5.505 4.125 5.25 C1.64931313 3.79371361 1.04874998 2.62187494 0 0 Z " fill="#646EE5" transform="translate(202,47)"/>
<path d="M0 0 C0.66 0 1.32 0 2 0 C2 1.65 2 3.3 2 5 C2.66 5.33 3.32 5.66 4 6 C4 6.66 4 7.32 4 8 C2.1875 8.625 2.1875 8.625 0 9 C-0.99 8.34 -1.98 7.68 -3 7 C-1.125 3.125 -1.125 3.125 0 2 C0 1.34 0 0.68 0 0 Z " fill="#393C5C" transform="translate(291,210)"/>
<path d="M0 0 C2.71262116 0.2322646 5.40773126 0.41936235 8.125 0.5625 C9.25615234 0.62727539 9.25615234 0.62727539 10.41015625 0.69335938 C12.27321888 0.7994832 14.13658524 0.90025001 16 1 C16 1.33 16 1.66 16 2 C8.74 2 1.48 2 -6 2 C-6 1.34 -6 0.68 -6 0 C-2.25 -1.125 -2.25 -1.125 0 0 Z " fill="#060B4D" transform="translate(865,167)"/>
<path d="M0 0 C-4.86834395 3.06010191 -9.32084928 5.02643131 -15 6 C-12.87748883 3.69895986 -10.84451444 2.18105541 -8.0625 0.75 C-7.39347656 0.39421875 -6.72445312 0.0384375 -6.03515625 -0.328125 C-3.61730731 -1.12634 -2.36988243 -0.82707306 0 0 Z " fill="#6A73E0" transform="translate(184,134)"/>
<path d="M0 0 C0.99 0 1.98 0 3 0 C5.1583195 6.07027358 5.20852314 11.59370576 5 18 C4.67 18 4.34 18 4 18 C3.87882812 17.20335937 3.75765625 16.40671875 3.6328125 15.5859375 C2.38116525 7.65498622 2.38116525 7.65498622 0 0 Z " fill="#101159" transform="translate(434,113)"/>
<path d="M0 0 C0.66 0.33 1.32 0.66 2 1 C1.360625 1.45375 0.72125 1.9075 0.0625 2.375 C-2.98225157 6.25013836 -2.81649865 10.1922647 -3 15 C-5.36086122 11.45870816 -5.57269578 10.17249782 -5 6 C-3.520959 3.72732724 -1.88485657 1.9790994 0 0 Z " fill="#6B73E1" transform="translate(228,29)"/>
<path d="M0 0 C0.33 0.66 0.66 1.32 1 2 C1.66 2 2.32 2 3 2 C3 5.96 3 9.92 3 14 C0.65454672 11.65454672 0.04491112 10.04014162 -0.09765625 6.73828125 C-0.08605469 5.93777344 -0.07445312 5.13726562 -0.0625 4.3125 C-0.05347656 3.50425781 -0.04445313 2.69601563 -0.03515625 1.86328125 C-0.02355469 1.24839844 -0.01195312 0.63351563 0 0 Z " fill="#3C3F57" transform="translate(419,210)"/>
<path d="M0 0 C3.76428019 3.31087949 4.80132193 7.24690847 6 12 C6.1875 15.0625 6.1875 15.0625 6 17 C5.34 16.67 4.68 16.34 4 16 C3.4375 14.0390625 3.4375 14.0390625 3 11.625 C2.39799887 8.32474381 1.92394018 6.88591027 0 4 C0 2.68 0 1.36 0 0 Z " fill="#6C75DE" transform="translate(133,154)"/>
<path d="M0 0 C0 0.33 0 0.66 0 1 C-0.97839844 1.14695312 -0.97839844 1.14695312 -1.9765625 1.296875 C-7.63431108 2.26486738 -11.48422039 3.43491083 -16 7 C-15.8125 4.625 -15.8125 4.625 -15 2 C-10.62426555 -0.96420721 -5.07382262 -0.17733749 0 0 Z " fill="#0E155A" transform="translate(423,105)"/>
<path d="M0 0 C0 3.98398253 -1.71904014 6.83411926 -4 10 C-4.99 10.66 -5.98 11.32 -7 12 C-6.79692286 7.73538008 -5.91504038 5.56751049 -2.9375 2.625 C-1.968125 1.75875 -0.99875 0.8925 0 0 Z " fill="#17195F" transform="translate(392,93)"/>
<path d="M0 0 C-0.79664063 0.38091797 -0.79664063 0.38091797 -1.609375 0.76953125 C-5.3324172 2.58349524 -8.79762215 4.3313518 -12 7 C-12 5.35 -12 3.7 -12 2 C-11.34 2 -10.68 2 -10 2 C-9.67 1.34 -9.34 0.68 -9 0 C-5.58777852 -1.01444422 -3.37896371 -0.95821359 0 0 Z " fill="#0D165A" transform="translate(518,107)"/>
<path d="M0 0 C4.29 0 8.58 0 13 0 C13.66 1.65 14.32 3.3 15 5 C14.01 4.505 13.02 4.01 12 3.5 C7.86522766 1.69896419 4.46801547 1.76484129 0 2 C0 1.34 0 0.68 0 0 Z " fill="#101455" transform="translate(839,104)"/>
<path d="M0 0 C1 3 1 3 -0.14453125 5.4453125 C-0.69496094 6.32960938 -1.24539063 7.21390625 -1.8125 8.125 C-2.35519531 9.01445313 -2.89789063 9.90390625 -3.45703125 10.8203125 C-5 13 -5 13 -7 14 C-5.53967505 8.68972746 -3.01679014 4.53669968 0 0 Z " fill="#201E5C" transform="translate(484,98)"/>
<path d="M0 0 C0 0.99 0 1.98 0 3 C-4.06629447 6.30386425 -7.95191192 6.57219593 -13 7 C-12.34 6.67 -11.68 6.34 -11 6 C-11 5.34 -11 4.68 -11 4 C-9.741875 3.896875 -8.48375 3.79375 -7.1875 3.6875 C-4.39500343 3.35141192 -3.25566879 3.19974124 -1 1.4375 C-0.67 0.963125 -0.34 0.48875 0 0 Z " fill="#1A2164" transform="translate(780,69)"/>
<path d="M0 0 C0.33 0 0.66 0 1 0 C1 2.31 1 4.62 1 7 C1.66 7 2.32 7 3 7 C3.33 8.32 3.66 9.64 4 11 C4.66 11 5.32 11 6 11 C6.66 12.32 7.32 13.64 8 15 C4.58110927 13.53476111 2.1858398 12.04456257 0 9 C-0.33485805 5.97058107 -0.23342706 3.03455174 0 0 Z " fill="#1F205C" transform="translate(756,60)"/>
<path d="M0 0 C0.66 0.33 1.32 0.66 2 1 C2 1.66 2 2.32 2 3 C-0.52475462 4.26237731 -2.31200466 4.09856404 -5.125 4.0625 C-6.03507812 4.05347656 -6.94515625 4.04445312 -7.8828125 4.03515625 C-8.58148438 4.02355469 -9.28015625 4.01195312 -10 4 C-10 3.34 -10 2.68 -10 2 C-9.04287109 1.90912109 -9.04287109 1.90912109 -8.06640625 1.81640625 C-6.82697266 1.69072266 -6.82697266 1.69072266 -5.5625 1.5625 C-4.73878906 1.48128906 -3.91507812 1.40007812 -3.06640625 1.31640625 C-1.01337975 1.21069185 -1.01337975 1.21069185 0 0 Z " fill="#32364A" transform="translate(346,225)"/>
<path d="M0 0 C0.99 0.33 1.98 0.66 3 1 C1.625 3.5 1.625 3.5 0 6 C-0.66 6 -1.32 6 -2 6 C-2 7.98 -2 9.96 -2 12 C-2.33 12 -2.66 12 -3 12 C-3.08131463 10.56344146 -3.13933559 9.1255517 -3.1875 7.6875 C-3.22230469 6.88699219 -3.25710938 6.08648437 -3.29296875 5.26171875 C-2.93801608 2.52148416 -2.10633718 1.70828921 0 0 Z " fill="#0D0E57" transform="translate(760,55)"/>
<path d="M0 0 C0.86625 0.185625 1.7325 0.37125 2.625 0.5625 C6.05152628 1.00667933 8.64212371 0.71954492 12 0 C11.67 0.99 11.34 1.98 11 3 C9.54176788 3.0270043 8.08339325 3.04639787 6.625 3.0625 C5.81289063 3.07410156 5.00078125 3.08570313 4.1640625 3.09765625 C2 3 2 3 0 2 C0 1.34 0 0.68 0 0 Z " fill="#31364B" transform="translate(580,226)"/>
<path d="M0 0 C-0.185625 0.61875 -0.37125 1.2375 -0.5625 1.875 C-1.23686176 4.04160178 -1.23686176 4.04160178 0 6 C-1.65 6 -3.3 6 -5 6 C-5 4.35 -5 2.7 -5 1 C-3 0 -3 0 0 0 Z " fill="#363851" transform="translate(587,202)"/>
<path d="M0 0 C1.32 0.33 2.64 0.66 4 1 C3.67 1.99 3.34 2.98 3 4 C4.65 3.67 6.3 3.34 8 3 C7.67 3.66 7.34 4.32 7 5 C4.6859378 5.73075648 2.35171131 6.40138258 0 7 C0 4.69 0 2.38 0 0 Z " fill="#1B2471" transform="translate(433,162)"/>
<path d="M0 0 C0 3 0 3 -1.375 5.1875 C-5.36778813 7.94442514 -9.28984469 7.32359846 -14 7 C-14 6.67 -14 6.34 -14 6 C-13.11248047 5.85304687 -13.11248047 5.85304687 -12.20703125 5.703125 C-7.12957861 4.74230199 -3.82486256 3.7014799 0 0 Z " fill="#111452" transform="translate(709,141)"/>
<path d="M0 0 C2 1 2 1 3.125 3.8125 C4 7 4 7 4 11 C4.66 11.33 5.32 11.66 6 12 C4.68 11.67 3.36 11.34 2 11 C0 3.375 0 3.375 0 0 Z " fill="#090A57" transform="translate(477,137)"/>
<path d="M0 0 C0 3.38023517 -0.87455622 5.83468937 -2 9 C-2.66 9 -3.32 9 -4 9 C-4 9.66 -4 10.32 -4 11 C-4.66 11 -5.32 11 -6 11 C-4.54955729 6.89041233 -2.48889248 3.56741255 0 0 Z " fill="#6D77E1" transform="translate(63,69)"/>
<path d="M0 0 C-5.20333134 2.24281523 -8.34264585 3.55577239 -14 2 C-9.59655646 -0.64206612 -4.90226152 -1.63408717 0 0 Z " fill="#1A2169" transform="translate(952,167)"/>
<path d="M0 0 C0.66 0 1.32 0 2 0 C1.9375 1.8125 1.9375 1.8125 1 4 C-4.77077364 7.15759312 -4.77077364 7.15759312 -8.4375 6.6875 C-8.953125 6.460625 -9.46875 6.23375 -10 6 C-3.375 3 -3.375 3 0 3 C0 2.01 0 1.02 0 0 Z " fill="#0B1360" transform="translate(955,160)"/>
<path d="M0 0 C0.33 0.66 0.66 1.32 1 2 C1.66 2 2.32 2 3 2 C3 2.66 3 3.32 3 4 C0.36 4 -2.28 4 -5 4 C-5 3.01 -5 2.02 -5 1 C-3.35 0.67 -1.7 0.34 0 0 Z " fill="#31354A" transform="translate(313,225)"/>
<path d="M0 0 C0.33 0 0.66 0 1 0 C1 2.31 1 4.62 1 7 C2.32 7 3.64 7 5 7 C5 6.34 5 5.68 5 5 C5.99 5 6.98 5 8 5 C8 5.99 8 6.98 8 8 C5.36 8 2.72 8 0 8 C-1.09658936 4.71023192 -0.79953138 3.28696233 0 0 Z " fill="#3B3D52" transform="translate(358,221)"/>
<path d="M0 0 C0.99 0.99 1.98 1.98 3 3 C2.67 3.99 2.34 4.98 2 6 C0.35 6 -1.3 6 -3 6 C-3 3 -3 3 -1.5 1.3125 C-0.7575 0.6628125 -0.7575 0.6628125 0 0 Z " fill="#414463" transform="translate(597,202)"/>
<path d="M0 0 C4.455 1.98 4.455 1.98 9 4 C9 4.33 9 4.66 9 5 C5.625 5.125 5.625 5.125 2 5 C1.34 4.34 0.68 3.68 0 3 C0 2.01 0 1.02 0 0 Z " fill="#070E5D" transform="translate(935,147)"/>
<path d="M0 0 C0.66 0 1.32 0 2 0 C2.33 1.65 2.66 3.3 3 5 C-1.55384615 5.36923077 -1.55384615 5.36923077 -3.8125 3.5 C-4.204375 3.005 -4.59625 2.51 -5 2 C-3.35 1.67 -1.7 1.34 0 1 C0 0.67 0 0.34 0 0 Z " fill="#141664" transform="translate(434,106)"/>
<path d="M0 0 C0.99 0.495 0.99 0.495 2 1 C2.4140625 3.28515625 2.4140625 3.28515625 2.625 6.0625 C2.69976563 6.98160156 2.77453125 7.90070313 2.8515625 8.84765625 C2.92503906 9.91306641 2.92503906 9.91306641 3 11 C2.01 11.66 1.02 12.32 0 13 C0 8.71 0 4.42 0 0 Z " fill="#20215F" transform="translate(619,84)"/>
<path d="M0 0 C0.33 0.99 0.66 1.98 1 3 C-1.97 5.475 -1.97 5.475 -5 8 C-5 5 -5 5 -2.5 2.3125 C-1.675 1.549375 -0.85 0.78625 0 0 Z " fill="#464860" transform="translate(644,202)"/>
<path d="M0 0 C0.33 0.66 0.66 1.32 1 2 C0.67 2.99 0.34 3.98 0 5 C-2.0625 5.6875 -2.0625 5.6875 -4 6 C-4 4.35 -4 2.7 -4 1 C-2.68 0.67 -1.36 0.34 0 0 Z " fill="#3F4460" transform="translate(323,202)"/>
<path d="M0 0 C3.35595828 0.59927826 5.37801226 1.84622436 8 4 C5.69 4 3.38 4 1 4 C0.67 2.68 0.34 1.36 0 0 Z " fill="#08135B" transform="translate(508,145)"/>
<path d="M0 0 C2.64 0.33 5.28 0.66 8 1 C8.66 2.65 9.32 4.3 10 6 C6.7 4.35 3.4 2.7 0 1 C0 0.67 0 0.34 0 0 Z " fill="#111457" transform="translate(320,79)"/>
<path d="M0 0 C0.99 0.33 1.98 0.66 3 1 C3 1.66 3 2.32 3 3 C1 4 -1 5 -3 6 C-2.625 3.5625 -2.625 3.5625 -2 1 C-1.34 0.67 -0.68 0.34 0 0 Z " fill="#464867" transform="translate(653,213)"/>
<path d="M0 0 C0.66 0.66 1.32 1.32 2 2 C1.01 4.31 0.02 6.62 -1 9 C-1.33 9 -1.66 9 -2 9 C-2 6.36 -2 3.72 -2 1 C-1.34 0.67 -0.68 0.34 0 0 Z " fill="#43455F" transform="translate(408,211)"/>
<path d="M0 0 C5.78461538 4.43076923 5.78461538 4.43076923 6.875 7.3125 C6.936875 8.1478125 6.936875 8.1478125 7 9 C6.566875 8.525625 6.13375 8.05125 5.6875 7.5625 C3.97690387 5.76313043 3.97690387 5.76313043 1 5 C0.67 3.35 0.34 1.7 0 0 Z " fill="#0C1563" transform="translate(728,95)"/>
<path d="M0 0 C0.99 0.33 1.98 0.66 3 1 C3.6875 3.0625 3.6875 3.0625 4 5 C2.68 5 1.36 5 0 5 C0 4.34 0 3.68 0 3 C-0.99 2.67 -1.98 2.34 -3 2 C-2.01 2 -1.02 2 0 2 C0 1.34 0 0.68 0 0 Z " fill="#040860" transform="translate(610,73)"/>
<path d="M0 0 C0.66 0.33 1.32 0.66 2 1 C1.01 2.485 1.01 2.485 0 4 C-0.99 4 -1.98 4 -3 4 C-3 4.66 -3 5.32 -3 6 C-4.32 5.67 -5.64 5.34 -7 5 C-4.69 3.35 -2.38 1.7 0 0 Z " fill="#747DE5" transform="translate(86,46)"/>
<path d="M0 0 C0.33 0 0.66 0 1 0 C1 2.97 1 5.94 1 9 C-0.32 8.67 -1.64 8.34 -3 8 C-2.01 8 -1.02 8 0 8 C-0.37125 7.236875 -0.7425 6.47375 -1.125 5.6875 C-1.41375 4.800625 -1.7025 3.91375 -2 3 C-1.34 2.01 -0.68 1.02 0 0 Z " fill="#535467" transform="translate(662,209)"/>
<path d="M0 0 C-1.0625 1.5 -1.0625 1.5 -3 3 C-6.6875 3.1875 -6.6875 3.1875 -10 3 C-10 2.34 -10 1.68 -10 1 C-6.61981469 -0.04005702 -3.5219721 -0.08004482 0 0 Z " fill="#404257" transform="translate(436,201)"/>
<path d="M0 0 C1.32 0 2.64 0 4 0 C4 1.65 4 3.3 4 5 C2.68 4.34 1.36 3.68 0 3 C0 2.01 0 1.02 0 0 Z " fill="#0C0E5E" transform="translate(666,155)"/>
<path d="M0 0 C0.66 0 1.32 0 2 0 C2.66 2.97 3.32 5.94 4 9 C0.68987756 5.68987756 0.49648935 4.46840411 0 0 Z " fill="#20205F" transform="translate(381,143)"/>
<path d="M0 0 C2.4375 0.375 2.4375 0.375 5 1 C5.33 1.66 5.66 2.32 6 3 C5.34 3 4.68 3 4 3 C4 3.66 4 4.32 4 5 C2.68 4.34 1.36 3.68 0 3 C0 2.01 0 1.02 0 0 Z " fill="#09115E" transform="translate(441,89)"/>
<path d="M0 0 C2.31 1.98 4.62 3.96 7 6 C6.01 6.33 5.02 6.66 4 7 C3.67 6.34 3.34 5.68 3 5 C2.01 4.67 1.02 4.34 0 4 C0 2.68 0 1.36 0 0 Z " fill="#626CE0" transform="translate(213,56)"/>
</svg>
