<?xml version="1.0" encoding="UTF-8"?>
<svg version="1.1" xmlns="http://www.w3.org/2000/svg" width="868" height="287">
<path d="M0 0 C17.19314527 13.8105271 27.25132642 32.02092805 30 54 C30.09987304 56.20474531 30.15746523 58.41173259 30.17700195 60.61865234 C30.19625481 62.52630875 30.19625481 62.52630875 30.21589661 64.47250366 C30.22406467 65.84364425 30.23150828 67.21478931 30.23828125 68.5859375 C30.24235678 69.28540119 30.2464323 69.98486488 30.25063133 70.70552444 C30.27139576 74.40524234 30.28574091 78.10492417 30.29516602 81.8046875 C30.30623491 85.60294221 30.34066736 89.40061191 30.38033772 93.1986599 C30.40660367 96.14139825 30.41486641 99.08399879 30.41844749 102.02684402 C30.42328452 103.42615351 30.43481516 104.82545805 30.45348549 106.22465134 C30.56906705 115.45707085 30.14548347 123.06333082 24.03515625 130.33984375 C23.05869141 131.13068359 23.05869141 131.13068359 22.0625 131.9375 C21.41410156 132.48277344 20.76570312 133.02804688 20.09765625 133.58984375 C15.95298471 136.3761127 12.36240119 137.25026438 7.39941406 137.24291992 C6.30187805 137.24599655 5.20434204 137.24907318 4.07354736 137.25224304 C2.89943298 137.24505753 1.7253186 137.23787201 0.515625 137.23046875 C-0.69571106 137.23001053 -1.90704712 137.22955231 -3.15509033 137.2290802 C-5.71033714 137.226063 -8.26558219 137.21819266 -10.82080078 137.20581055 C-14.74908903 137.18750425 -18.67714222 137.18530126 -22.60546875 137.18554688 C-25.08593955 137.18063349 -27.56640875 137.17480595 -30.046875 137.16796875 C-31.2290863 137.16685593 -32.41129761 137.1657431 -33.6293335 137.16459656 C-34.71426086 137.15821671 -35.79918823 137.15183685 -36.91699219 137.14526367 C-38.35664337 137.13954597 -38.35664337 137.13954597 -39.82537842 137.13371277 C-42 137 -42 137 -43 136 C-43.12625775 133.01438678 -43.18873565 130.05327104 -43.203125 127.06640625 C-43.20882507 126.15930405 -43.21452515 125.25220184 -43.22039795 124.31761169 C-43.22987017 122.38826672 -43.2363907 120.45890541 -43.24023438 118.52954102 C-43.24985688 115.60598392 -43.28082356 112.68315499 -43.3125 109.75976562 C-43.31903832 107.88281666 -43.32428552 106.00586267 -43.328125 104.12890625 C-43.3404718 103.26495743 -43.3528186 102.40100861 -43.36553955 101.51087952 C-43.32522335 90.26827283 -39.77587664 80.796468 -31.80859375 72.80078125 C-25.40782567 67.24248987 -17.67742643 63 -9 63 C-9.33 62.01 -9.66 61.02 -10 60 C-12.48736293 58.96028526 -12.48736293 58.96028526 -15.5 58.1875 C-26.14850078 54.83145591 -34.74376494 48.53997724 -40.31640625 38.66796875 C-42.35845136 34.24479354 -43.79637622 29.71419314 -45 25 C-45.66 25 -46.32 25 -47 25 C-47.23074219 25.7734375 -47.46148437 26.546875 -47.69921875 27.34375 C-49.74364089 33.87297168 -51.98326521 39.45431454 -56 45 C-56.61875 45.886875 -57.2375 46.77375 -57.875 47.6875 C-64.05002031 54.40737504 -71.18150995 57.55507869 -80.34591675 58.15307617 C-86.95947253 58.371688 -93.57228789 58.27349613 -100.1875 58.1875 C-102.20897442 58.17242767 -104.23045969 58.15874378 -106.25195312 58.14648438 C-111.1682401 58.11367671 -116.0839985 58.06203458 -121 58 C-124.08285865 44.44030625 -115.72153543 29.13384736 -108.875 17.81640625 C-97.60212839 0.88361369 -79.6440564 -9.78034225 -60 -14 C-38.86224906 -17.55076087 -17.22907614 -12.94008406 0 0 Z " fill="#5F6FFC" transform="translate(149,81)"/>
<path d="M0 0 C1.27423828 0.01885254 1.27423828 0.01885254 2.57421875 0.03808594 C14.57595431 0.27182403 25.16368005 1.45119631 35 9 C35.99 9.721875 36.98 10.44375 38 11.1875 C46.96634687 18.88635281 51.8254594 31.46944895 53 43 C54.22047933 61.53866022 51.76401637 78.29630846 39.8125 93.25 C31.21581635 102.47017939 18.24201424 108.64730216 5.609375 109.12939453 C4.33578125 109.13052246 3.0621875 109.13165039 1.75 109.1328125 C0.70815552 109.13424759 0.70815552 109.13424759 -0.35473633 109.13571167 C-1.82389415 109.13639024 -3.29305502 109.13455855 -4.76220703 109.13037109 C-6.96524156 109.12508343 -9.16806607 109.13029305 -11.37109375 109.13671875 C-30.42610046 109.14906286 -30.42610046 109.14906286 -37 108 C-38.37206002 105.25587995 -38.12720408 103.06635067 -38.12939453 99.99438477 C-38.13250641 98.72501068 -38.13561829 97.4556366 -38.13882446 96.14779663 C-38.13701971 94.74566623 -38.13500983 93.34353609 -38.1328125 91.94140625 C-38.13382652 90.49077326 -38.13516503 89.04014047 -38.1368103 87.58950806 C-38.13950915 83.71287416 -38.13505494 79.83628023 -38.12857056 75.95965195 C-38.1250148 73.5724348 -38.12338568 71.18522361 -38.12231445 68.79800415 C-38.10985258 46.52047198 -37.96483029 24.2603798 -37 2 C-27.33720507 -2.83139746 -10.56687057 -0.17611451 0 0 Z M-12 24 C-12.10162685 26.88044995 -12.13964156 29.73630984 -12.1328125 32.6171875 C-12.13376923 33.50294464 -12.13472595 34.38870178 -12.13571167 35.30130005 C-12.13639482 37.19289215 -12.13453124 39.08448657 -12.13037109 40.97607422 C-12.12513801 43.8005135 -12.13025096 46.62478524 -12.13671875 49.44921875 C-12.14063865 61.33042757 -11.75230868 73.14299833 -11 85 C-1.55245833 85.40379447 7.56247998 85.10339013 15.3125 79.0625 C21.74900055 72.85114453 25.63472376 64.0822742 26.16796875 55.203125 C26.23781101 44.64297464 25.48458231 36.91534963 18 29 C12.45515825 24.31768919 -6.04919929 18.04919929 -12 24 Z " fill="#020B6B" transform="translate(245,102)"/>
<path d="M0 0 C0.88860214 -0.00637985 1.77720428 -0.0127597 2.69273376 -0.01933289 C3.66239578 -0.02044571 4.6320578 -0.02155853 5.63110352 -0.02270508 C6.6269899 -0.02603348 7.62287628 -0.02936188 8.64894104 -0.03279114 C10.76660703 -0.03786858 12.88428106 -0.04019921 15.00195312 -0.04003906 C18.21506379 -0.04220602 21.42782021 -0.06029845 24.64086914 -0.0793457 C26.70011276 -0.08228351 28.75935801 -0.08426571 30.81860352 -0.08520508 C31.77004745 -0.09239059 32.72149139 -0.09957611 33.70176697 -0.10697937 C45.61024322 -0.06702397 55.49716003 2.17127687 64.57250977 10.20776367 C71.35859228 17.57912603 73.53944574 26.38669424 73.34399414 36.20581055 C72.77458077 47.00395861 69.17084247 55.29768119 61.82250977 63.14526367 C61.02006836 64.00958008 61.02006836 64.00958008 60.20141602 64.89135742 C51.83200665 72.93963837 42.05837843 73.54157919 31.02075195 73.34985352 C28.95426259 73.29542848 26.88827871 73.22232863 24.82250977 73.14526367 C22.83132735 68.17514694 22.57405282 64.02193232 22.69750977 58.77026367 C22.7065332 58.03420898 22.71555664 57.2981543 22.72485352 56.53979492 C22.74820832 54.74147487 22.78407141 52.94332456 22.82250977 51.14526367 C26.41365747 49.34968982 30.60734499 49.33644739 34.56079102 48.84057617 C38.94508053 47.90596116 41.77362653 46.41115723 44.63500977 42.95776367 C46.18684659 39.28236067 46.50179939 36.03782217 45.82250977 32.14526367 C43.36399858 27.13368317 40.91517977 25.23944573 35.82250977 23.14526367 C33.13458616 22.78958893 30.63733204 22.54898826 27.94750977 22.45776367 C27.25915039 22.42360352 26.57079102 22.38944336 25.86157227 22.35424805 C24.18242363 22.27262277 22.50249809 22.20724797 20.82250977 22.14526367 C20.83036499 24.08900879 20.83036499 24.08900879 20.83837891 26.07202148 C20.91932386 48.09980784 20.99000262 70.12386904 20.38500977 92.14526367 C20.36536163 92.91519653 20.3457135 93.68512939 20.32546997 94.47839355 C20.26932594 96.61758202 20.20587118 98.75638935 20.13891602 100.89526367 C20.1022583 102.08635742 20.06560059 103.27745117 20.02783203 104.50463867 C19.82250977 107.14526367 19.82250977 107.14526367 18.82250977 108.14526367 C17.21167232 108.24445547 15.59655332 108.27606187 13.98266602 108.27807617 C13.00233398 108.27936523 12.02200195 108.2806543 11.01196289 108.28198242 C9.46412109 108.27618164 9.46412109 108.27618164 7.88500977 108.27026367 C6.34296875 108.27606445 6.34296875 108.27606445 4.76977539 108.28198242 C3.7881543 108.28069336 2.8065332 108.2794043 1.79516602 108.27807617 C0.89032471 108.27694824 -0.0145166 108.27582031 -0.94677734 108.2746582 C-3.17749023 108.14526367 -3.17749023 108.14526367 -5.17749023 107.14526367 C-5.20082081 93.3418548 -5.21840378 79.53844897 -5.22930241 65.73502445 C-5.2345319 59.32627239 -5.24163074 52.91753353 -5.25292969 46.50878906 C-5.26375622 40.32966926 -5.26976657 34.15056219 -5.27236748 27.97143364 C-5.27422215 25.60820757 -5.27784356 23.24498223 -5.28322029 20.88176155 C-5.29042762 17.58424471 -5.29148131 14.2867812 -5.29101562 10.98925781 C-5.2946109 10.0016748 -5.29820618 9.0140918 -5.3019104 7.99658203 C-5.30053574 7.10330704 -5.29916107 6.21003204 -5.29774475 5.28968811 C-5.29866654 4.50892945 -5.29958834 3.7281708 -5.30053806 2.92375278 C-5.05826513 -0.57797309 -3.01431486 0.01464058 0 0 Z " fill="#030C6A" transform="translate(486.177490234375,101.854736328125)"/>
<path d="M0 0 C1.32024422 -0.00855011 1.32024422 -0.00855011 2.66716003 -0.01727295 C4.54103386 -0.02674714 6.41492453 -0.03326648 8.28881836 -0.03710938 C11.11798754 -0.04670547 13.94639563 -0.07765814 16.77539062 -0.109375 C30.74780532 -0.19322929 42.75964716 0.02777253 53.35546875 10.203125 C60.17543707 16.96326904 63.35604029 24.13495216 63.46899414 33.80981445 C63.46883669 35.64535267 63.46323945 37.4808959 63.453125 39.31640625 C63.45171005 40.28595749 63.4502951 41.25550873 63.44883728 42.25444031 C63.44325388 45.34153367 63.43070439 48.42855367 63.41796875 51.515625 C63.41295161 53.61262916 63.40838907 55.70963446 63.40429688 57.80664062 C63.39328987 62.93883021 63.37603663 68.07096518 63.35546875 73.203125 C55.52680598 73.30481691 47.69831453 73.3747135 39.86914062 73.42285156 C37.20736628 73.44066149 34.54645847 73.47018785 31.88476562 73.50488281 C28.05197295 73.55358048 24.21976512 73.57613616 20.38671875 73.59375 C19.20307739 73.61439514 18.01943604 73.63504028 16.79992676 73.65631104 C8.9288127 73.65843324 3.58868708 72.69615388 -2.6328125 67.5625 C-3.28830078 66.76585937 -3.28830078 66.76585937 -3.95703125 65.953125 C-4.40691406 65.43234375 -4.85679688 64.9115625 -5.3203125 64.375 C-9.82232456 56.99116901 -10.06617986 50.30821144 -9.97265625 41.86328125 C-9.97078308 40.70058212 -9.96890991 39.537883 -9.96697998 38.33995056 C-9.96028575 35.8967703 -9.946424 33.45360027 -9.92578125 31.01049805 C-9.89443127 27.25364324 -9.88478762 23.49720744 -9.87890625 19.74023438 C-9.8697436 17.36457817 -9.8593702 14.98892625 -9.84765625 12.61328125 C-9.84340637 11.48422867 -9.83915649 10.35517609 -9.83477783 9.19190979 C-9.82517029 8.156707 -9.81556274 7.12150421 -9.80566406 6.05493164 C-9.79883606 5.13974258 -9.79200806 4.22455353 -9.78497314 3.28163147 C-9.44799261 -1.70559982 -3.85792758 0.01919831 0 0 Z " fill="#5F6FFD" transform="translate(36.64453125,144.796875)"/>
<path d="M0 0 C8.83350941 6.93471767 13.25854754 14.98889407 15.359375 25.875 C16.4755833 38.15329133 14.40415895 49.38723636 6.671875 59.3125 C-0.83583305 67.42031397 -9.08688358 72.87472426 -20.26953125 73.55078125 C-33.35257347 73.86849607 -42.85874378 72.31988828 -53.1015625 63.5078125 C-62.2335341 54.50400892 -64.59430475 44.28971729 -64.765625 31.8125 C-64.66095455 19.99164068 -62.07556814 12.09097418 -53.67578125 3.47265625 C-39.67032327 -9.41422938 -15.73733928 -10.92509504 0 0 Z M-37.703125 18.6875 C-41.30568442 24.50701906 -42.28521219 29.50435398 -41.328125 36.3125 C-39.18227464 42.66716415 -36.22568733 47.97425717 -30.328125 51.3125 C-25.99512457 52.23792559 -22.18912398 52.32979982 -18.234375 50.16796875 C-13.37739956 46.26798211 -10.64736491 41.97858464 -9.89453125 35.69140625 C-9.72621664 25.72651589 -9.72621664 25.72651589 -14.328125 17.3125 C-21.51212122 11.32583648 -31.29066482 12.27503982 -37.703125 18.6875 Z " fill="#030C6B" transform="translate(373.328125,137.6875)"/>
<path d="M0 0 C7.26372638 5.42412342 11.46949237 11.9691922 14.09765625 20.56640625 C14.38382813 21.45199219 14.38382813 21.45199219 14.67578125 22.35546875 C16.94988425 34.27345301 15.16161901 45.48724531 9.16015625 55.94140625 C6.96778445 58.73169763 4.69849492 61.15134177 2.09765625 63.56640625 C0.73640625 64.83484375 0.73640625 64.83484375 -0.65234375 66.12890625 C-10.20462122 73.97365225 -22.08868192 74.57940015 -33.90234375 73.56640625 C-44.64217563 71.32894128 -53.78164155 64.62318133 -59.90234375 55.56640625 C-65.86878469 42.85607903 -66.88369862 28.95779378 -62.28515625 15.64453125 C-58.26148391 6.6878821 -51.85828824 0.49923405 -42.90234375 -3.43359375 C-28.78740602 -8.46371383 -13.00332565 -7.9058332 0 0 Z M-36.41015625 18.03515625 C-41.2534906 23.68110029 -41.30578087 27.71852353 -41.24609375 35.0078125 C-40.7646616 39.99172942 -39.23090413 42.91203441 -35.90234375 46.56640625 C-35.45632813 47.09105469 -35.0103125 47.61570313 -34.55078125 48.15625 C-31.7408988 50.98967895 -29.26491326 51.92800079 -25.40234375 52.12890625 C-20.94198872 51.85153963 -18.29335016 50.56310959 -14.90234375 47.56640625 C-9.68971472 40.66319483 -9.31161554 35.00069241 -9.90234375 26.56640625 C-10.78221021 22.42805129 -12.66279257 19.82877183 -15.52734375 16.69140625 C-22.33416112 12.40563235 -30.27235306 12.05636351 -36.41015625 18.03515625 Z " fill="#020B6B" transform="translate(630.90234375,137.43359375)"/>
<path d="M0 0 C5.89990312 3.71475382 8.50011162 8.65710139 11 15 C11.68685501 18.2868987 11.79041823 21.46073651 11.8125 24.8125 C11.84911743 26.22221069 11.84911743 26.22221069 11.88647461 27.66040039 C11.96027449 31.10736847 11.98425292 34.55226481 12 38 C12.00410889 38.74689087 12.00821777 39.49378174 12.01245117 40.26330566 C12.07453239 51.84262442 12.0558787 63.42069236 12 75 C4.41 75 -3.18 75 -11 75 C-12.19413602 72.61172795 -12.13693016 71.11207592 -12.15771484 68.44604492 C-12.16797699 67.50133835 -12.17823914 66.55663177 -12.18881226 65.58329773 C-12.19611359 64.55936417 -12.20341492 63.5354306 -12.2109375 62.48046875 C-12.23900798 60.32225807 -12.26767246 58.16405504 -12.296875 56.00585938 C-12.33813676 52.59562407 -12.37501521 49.18553145 -12.40136719 45.77514648 C-12.42897487 42.48911817 -12.47485053 39.20374486 -12.5234375 35.91796875 C-12.52669037 34.90010788 -12.52994324 33.88224701 -12.53329468 32.83354187 C-12.62282093 27.67718363 -12.77882186 24.25621297 -16 20 C-16 19.34 -16 18.68 -16 18 C-21.83209255 16.37704212 -26.99642963 15.94357198 -32.4375 18.8125 C-34.99250255 20.99359974 -36.81182538 22.59514109 -37.27174377 26.02876282 C-37.28205124 26.80342392 -37.2923587 27.57808502 -37.30297852 28.3762207 C-37.31962051 29.2575618 -37.33626251 30.13890289 -37.35340881 31.04695129 C-37.36182297 31.99696518 -37.37023712 32.94697906 -37.37890625 33.92578125 C-37.40439796 35.39630196 -37.40439796 35.39630196 -37.43040466 36.89653015 C-37.48357944 40.03512093 -37.52382056 43.17369974 -37.5625 46.3125 C-37.60653626 49.44051805 -37.65339047 52.56843744 -37.70530701 55.69633484 C-37.73705815 57.64288436 -37.76401064 59.58951967 -37.78553772 61.53620911 C-37.79902756 62.42700668 -37.8125174 63.31780426 -37.82641602 64.2355957 C-37.83592789 65.01264359 -37.84543976 65.78969147 -37.85523987 66.59028625 C-38.0248876 69.41428535 -38.53490044 72.20940264 -39 75 C-46.59 75 -54.18 75 -62 75 C-62 49.59 -62 24.18 -62 -2 C-57.37428613 -2.66081627 -53.4544749 -3.13695685 -48.875 -3.125 C-47.88242187 -3.12757813 -46.88984375 -3.13015625 -45.8671875 -3.1328125 C-43.14026837 -3.00649745 -40.65564076 -2.61284018 -38 -2 C-37.67 -0.35 -37.34 1.3 -37 3 C-35.9790625 2.1028125 -35.9790625 2.1028125 -34.9375 1.1875 C-24.4359013 -6.63283946 -11.43605035 -5.79452049 0 0 Z " fill="#030C6B" transform="translate(766,135)"/>
<path d="M0 0 C1.051875 0.5775 2.10375 1.155 3.1875 1.75 C5 4 5 4 5.0625 7.625 C4.094281 12.65594187 2.05735194 17.33028955 0 22 C-3.34486621 21.60180164 -5.82113699 21.09539361 -8.8125 19.5 C-14.25013308 16.94111384 -19.47822599 16.20833542 -25.25 18.125 C-30.30661046 20.3309715 -33.97034338 23.84574043 -36 29 C-36.73923431 35.9797472 -37.0987254 43.28887749 -33.3203125 49.4453125 C-30.39266425 52.89266162 -27.32101012 54.54701475 -22.8984375 55.41015625 C-17.1346086 55.80731054 -13.10818036 53.9189602 -8.1640625 51.09375 C-6 50 -6 50 -3 50 C-1.29939257 52.13824216 0.20205658 54.22089861 1.6875 56.5 C2.31108398 57.43005859 2.31108398 57.43005859 2.94726562 58.37890625 C3.97403506 59.91315943 4.98822225 61.45581929 6 63 C3.64745017 68.47352046 -0.83371156 71.47266235 -6.10546875 74.015625 C-17.86592317 78.38562992 -29.97171039 77.51252605 -41.5703125 73 C-52.87675538 67.32708092 -59.24380104 57.87485417 -63.3125 46.25 C-65.88563827 33.88394713 -63.78083193 22.93445916 -57.3125 12.25 C-50.8586836 3.23079157 -42.26028892 -0.86692712 -31.74609375 -3.58203125 C-21.24112307 -5.18093859 -9.3403357 -5.54642615 0 0 Z " fill="#040C6A" transform="translate(462,135)"/>
<path d="M0 0 C0.87454834 0.00523682 1.74909668 0.01047363 2.65014648 0.01586914 C3.59438477 0.0190918 4.53862305 0.02231445 5.51147461 0.02563477 C6.50469727 0.03401367 7.49791992 0.04239258 8.52124023 0.05102539 C9.51833008 0.05553711 10.51541992 0.06004883 11.54272461 0.06469727 C14.01478872 0.07652532 16.48673541 0.0930069 18.95874023 0.11352539 C20.46030897 3.11666287 20.05155228 5.90420062 20.02124023 9.23852539 C20.0122168 10.51985352 20.00319336 11.80118164 19.99389648 13.12133789 C19.98229492 14.10875977 19.97069336 15.09618164 19.95874023 16.11352539 C21.7647168 16.09612305 21.7647168 16.09612305 23.60717773 16.07836914 C25.18269702 16.06899105 26.75821798 16.05989087 28.33374023 16.05102539 C29.12780273 16.04264648 29.92186523 16.03426758 30.73999023 16.02563477 C36.73217773 16.00024414 36.73217773 16.00024414 38.95874023 17.11352539 C40.58698669 22.73837677 39.62014639 28.39490602 38.95874023 34.11352539 C35.1957365 35.36785997 31.68663114 35.22047961 27.77124023 35.17602539 C27.02165039 35.17151367 26.27206055 35.16700195 25.49975586 35.16235352 C23.65271641 35.15058893 21.8057181 35.13265405 19.95874023 35.11352539 C20.05254581 39.8644345 20.1586989 44.61485023 20.27612305 49.36523438 C20.31432095 50.98006709 20.34918968 52.59498223 20.38061523 54.20996094 C20.42646633 56.53618756 20.48442607 58.86185131 20.54467773 61.18774414 C20.55622894 61.90564621 20.56778015 62.62354828 20.5796814 63.36320496 C20.69641524 67.36011141 21.20614704 70.50687308 22.95874023 74.11352539 C26.64148492 74.77641943 29.46122625 75.22083233 33.14624023 74.42602539 C35.95874023 74.11352539 35.95874023 74.11352539 38.20874023 75.42602539 C40.77687365 79.36994456 41.29065776 83.50727254 41.95874023 88.11352539 C33.37148194 94.77303182 25.74164574 95.92486051 14.95874023 95.11352539 C8.72796512 94.08131867 4.77061617 91.58939957 0.36889648 87.12524414 C-3.57420688 81.50004128 -3.30945446 75.47926423 -3.23657227 68.90258789 C-3.23374237 67.9344516 -3.23091248 66.96631531 -3.22799683 65.96884155 C-3.21684672 62.89194111 -3.19175156 59.81533711 -3.16625977 56.73852539 C-3.15622329 54.64608169 -3.14709861 52.55363341 -3.13891602 50.46118164 C-3.11692429 45.34518288 -3.08243002 40.22940431 -3.04125977 35.11352539 C-4.43151367 35.13092773 -4.43151367 35.13092773 -5.84985352 35.14868164 C-7.04739258 35.15770508 -8.24493164 35.16672852 -9.47875977 35.17602539 C-10.6737207 35.18762695 -11.86868164 35.19922852 -13.09985352 35.21118164 C-16.04125977 35.11352539 -16.04125977 35.11352539 -17.04125977 34.11352539 C-17.16784198 31.45529882 -17.2264619 28.83465115 -17.22875977 26.17602539 C-17.24100586 25.43416992 -17.25325195 24.69231445 -17.26586914 23.92797852 C-17.27114454 21.9883891 -17.16314879 20.04928829 -17.04125977 18.11352539 C-15.04125977 16.11352539 -15.04125977 16.11352539 -12.22094727 15.91821289 C-11.13040039 15.94141602 -10.03985352 15.96461914 -8.91625977 15.98852539 C-7.82055664 16.00657227 -6.72485352 16.02461914 -5.59594727 16.04321289 C-4.75290039 16.06641602 -3.90985352 16.08961914 -3.04125977 16.11352539 C-3.05286133 15.04231445 -3.06446289 13.97110352 -3.07641602 12.86743164 C-3.08579275 11.47029796 -3.09489308 10.0731624 -3.10375977 8.67602539 C-3.11632812 7.61544922 -3.11632812 7.61544922 -3.12915039 6.53344727 C-3.13779564 4.7265898 -3.09345988 2.91964936 -3.04125977 1.11352539 C-2.04125977 0.11352539 -2.04125977 0.11352539 0 0 Z " fill="#020B6C" transform="translate(805.041259765625,115.886474609375)"/>
<path d="M0 0 C7.59 0 15.18 0 23 0 C24.85855997 1.85855997 24.12777647 4.94658673 24.12939453 7.42822266 C24.13114685 8.09987457 24.13289917 8.77152649 24.13470459 9.46353149 C24.13912611 11.69706769 24.13618211 13.93052541 24.1328125 16.1640625 C24.13348593 17.71528132 24.13445628 19.26650004 24.13571167 20.81771851 C24.13718943 24.07787068 24.13503335 27.33799553 24.13037109 30.59814453 C24.12470214 34.76421627 24.12793421 38.93022319 24.13394356 43.0962925 C24.13757139 46.30488567 24.13639991 49.5134637 24.13381577 52.72205734 C24.13315115 54.25695173 24.13395856 55.79184751 24.13629532 57.32674026 C24.13885516 59.48300006 24.13493342 61.63915789 24.12939453 63.79541016 C24.12859894 65.02039215 24.12780334 66.24537415 24.12698364 67.50747681 C24 71 24 71 23 78 C15.41 78 7.82 78 0 78 C0 52.26 0 26.52 0 0 Z " fill="#010A6C" transform="translate(660,132)"/>
<path d="M0 0 C3.02286884 1.38548155 4.66871425 2.66871425 7 5 C7.99491541 8.97966164 8.22636324 11.34606175 6.875 15.25 C4.16169435 19.22951495 1.6494737 20.54376259 -2.9375 21.8125 C-7.91155128 22.11703375 -10.86200808 20.81638551 -14.875 17.9375 C-17.41082734 14.43209162 -17.72618084 12.39714074 -17.5 8.15625 C-16.70000747 4.70628222 -14.74407005 3.09072004 -12 1 C-8.31859602 -0.84070199 -4.02730403 -0.36784824 0 0 Z " fill="#040C6A" transform="translate(677,102)"/>
<path d="M0 0 C1.27423828 0.01885254 1.27423828 0.01885254 2.57421875 0.03808594 C11.95900294 0.22085797 20.3662752 0.91134178 29 5 C28.67 5.66 28.34 6.32 28 7 C26.94425781 6.5155542 25.88851562 6.0311084 24.80078125 5.53198242 C19.02560861 3.3787119 13.28676854 3.52149466 7.1875 3.48828125 C5.5777832 3.46332581 5.5777832 3.46332581 3.93554688 3.43786621 C-0.04277288 3.38037848 -4.02142233 3.34789211 -8 3.3125 C-16.91 3.209375 -25.82 3.10625 -35 3 C-35.33 36.99 -35.66 70.98 -36 106 C-34.68 106.33 -33.36 106.66 -32 107 C-34.475 107.495 -34.475 107.495 -37 108 C-38.37206002 105.25587995 -38.12720408 103.06635067 -38.12939453 99.99438477 C-38.13250641 98.72501068 -38.13561829 97.4556366 -38.13882446 96.14779663 C-38.13701971 94.74566623 -38.13500983 93.34353609 -38.1328125 91.94140625 C-38.13382652 90.49077326 -38.13516503 89.04014047 -38.1368103 87.58950806 C-38.13950915 83.71287416 -38.13505494 79.83628023 -38.12857056 75.95965195 C-38.1250148 73.5724348 -38.12338568 71.18522361 -38.12231445 68.79800415 C-38.10985258 46.52047198 -37.96483029 24.2603798 -37 2 C-27.33720507 -2.83139746 -10.56687057 -0.17611451 0 0 Z " fill="#373871" transform="translate(245,102)"/>
<path d="M0 0 C5.31493308 5.09506747 5.38702414 10.48064412 5.625 17.5 C5.66294678 18.46236572 5.70089355 19.42473145 5.73999023 20.41625977 C6.27640072 36.26652048 6.07651951 52.14345757 6 68 C-1.59 68 -9.18 68 -17 68 C-18.19233173 65.61533653 -18.14956479 64.09259399 -18.18945312 61.43017578 C-18.20617065 60.48224152 -18.22288818 59.53430725 -18.2401123 58.55764771 C-18.25368774 57.53057709 -18.26726318 56.50350647 -18.28125 55.4453125 C-18.29965942 54.39221893 -18.31806885 53.33912537 -18.33703613 52.25411987 C-18.39591282 48.87780455 -18.4486601 45.50143784 -18.5 42.125 C-18.56764723 37.68999686 -18.64136388 33.25515516 -18.71875 28.8203125 C-18.73911316 27.28577927 -18.73911316 27.28577927 -18.7598877 25.72024536 C-18.77660522 24.76600677 -18.79332275 23.81176819 -18.81054688 22.82861328 C-18.82933899 21.5719133 -18.82933899 21.5719133 -18.84851074 20.28982544 C-18.9949895 18.0757359 -19.38826679 16.12810189 -20 14 C-19.01 13.67 -18.02 13.34 -17 13 C-12.47026258 22.05947484 -14.89099952 36.74078318 -14.9375 46.6875 C-14.94252509 48.56445193 -14.94708621 50.44140516 -14.95117188 52.31835938 C-14.96123944 56.87896529 -14.98082881 61.43938732 -15 66 C-8.73 66.33 -2.46 66.66 4 67 C3.9367744 59.74058304 3.86110713 52.48154239 3.76428509 45.22249031 C3.71979508 41.85082574 3.68049406 38.47927606 3.65356445 35.10742188 C3.61982736 31.2197603 3.56749981 27.33271286 3.51171875 23.4453125 C3.50532883 22.25011993 3.4989389 21.05492737 3.49235535 19.82351685 C3.36937114 12.73786222 2.47680121 6.65442334 0 0 Z " fill="#0F1768" transform="translate(772,142)"/>
<path d="M0 0 C3.71317907 1.14770989 5.2692056 1.85342428 7.4375 5.0625 C8.08879323 8.88884774 7.75280797 10.53698672 5.75 13.875 C3.14561387 16.3386085 2.00842219 17.0625 -1.5625 17.0625 C-4.39963564 15.67692213 -6.33251704 14.29248296 -8.5625 12.0625 C-9.13867676 7.70001885 -9.01950903 5.72724041 -6.5 2.0625 C-3.5625 0.0625 -3.5625 0.0625 0 0 Z " fill="#6371F2" transform="translate(171.5625,65.9375)"/>
<path d="M0 0 C2.64 0 5.28 0 8 0 C8 0.33 8 0.66 8 1 C6.02 1 4.04 1 2 1 C2 25.75 2 50.5 2 76 C7.94 76 13.88 76 20 76 C20.33 74.35 20.66 72.7 21 71 C21.33 71 21.66 71 22 71 C22 73.31 22 75.62 22 78 C14.74 78 7.48 78 0 78 C0 52.26 0 26.52 0 0 Z " fill="#101057" transform="translate(660,132)"/>
<path d="M0 0 C0.67998047 -0.00386719 1.35996094 -0.00773438 2.06054688 -0.01171875 C7.06075175 -0.00174825 7.06075175 -0.00174825 8.1875 1.125 C8.28179342 3.30305719 8.30492538 5.4842128 8.30102539 7.66430664 C8.30117142 8.34720261 8.30131744 9.03009857 8.3014679 9.73368835 C8.30076876 12.00087614 8.2929764 14.26798274 8.28515625 16.53515625 C8.28329207 18.10314387 8.28186817 19.67113207 8.28086853 21.23912048 C8.27704334 25.37376503 8.26721306 29.50837466 8.25616455 33.64300537 C8.24595044 37.85900398 8.24137091 42.07500822 8.23632812 46.29101562 C8.22559079 54.56902647 8.20851436 62.8470089 8.1875 71.125 C7.8575 71.125 7.5275 71.125 7.1875 71.125 C6.38780473 66.91325015 6.06537133 62.94507889 6.07397461 58.66064453 C6.07405014 57.39979034 6.07412567 56.13893616 6.07420349 54.83987427 C6.07930891 53.4791866 6.08452489 52.11849935 6.08984375 50.7578125 C6.09171088 49.35391287 6.09313339 47.95001258 6.09413147 46.54611206 C6.09793342 42.86692478 6.10774367 39.18777752 6.11883545 35.50860596 C6.12909969 31.74793031 6.1336398 27.98724814 6.13867188 24.2265625 C6.14936821 16.85935472 6.16694599 9.49218809 6.1875 2.125 C0.2475 2.455 -5.6925 2.785 -11.8125 3.125 C-12.1425 4.775 -12.4725 6.425 -12.8125 8.125 C-13.1425 8.125 -13.4725 8.125 -13.8125 8.125 C-13.8125 5.815 -13.8125 3.505 -13.8125 1.125 C-9.16058893 0.213428 -4.7371071 -0.00929756 0 0 Z " fill="#142372" transform="translate(675.8125,131.875)"/>
<path d="M0 0 C1.32024422 -0.00855011 1.32024422 -0.00855011 2.66716003 -0.01727295 C4.54103386 -0.02674714 6.41492453 -0.03326648 8.28881836 -0.03710938 C11.11798754 -0.04670547 13.94639563 -0.07765814 16.77539062 -0.109375 C26.41314336 -0.16441679 35.14955994 0.03287826 44.35546875 3.203125 C44.35546875 4.193125 44.35546875 5.183125 44.35546875 6.203125 C43.25009766 5.71416748 42.14472656 5.22520996 41.00585938 4.72143555 C35.9521997 2.83546132 31.29188566 2.81995968 25.94921875 2.91015625 C25.09231445 2.91317749 24.23541016 2.91619873 23.35253906 2.91931152 C20.18672441 2.93487145 17.021083 2.97675427 13.85546875 3.015625 C6.76046875 3.0775 -0.33453125 3.139375 -7.64453125 3.203125 C-7.97453125 20.033125 -8.30453125 36.863125 -8.64453125 54.203125 C-8.97453125 54.203125 -9.30453125 54.203125 -9.64453125 54.203125 C-9.66979773 46.67342848 -9.68736266 39.1437428 -9.69946289 31.61401367 C-9.70450495 29.05020743 -9.71133839 26.48640409 -9.7199707 23.92260742 C-9.73204189 20.24657479 -9.73776067 16.57058002 -9.7421875 12.89453125 C-9.74734879 11.74038223 -9.75251007 10.58623322 -9.75782776 9.39710999 C-9.75790329 8.33608566 -9.75797882 7.27506134 -9.75805664 6.18188477 C-9.76027725 5.24256607 -9.76249786 4.30324738 -9.76478577 3.33546448 C-9.47979094 -1.71803151 -3.90097488 0.01941253 0 0 Z " fill="#6E78D9" transform="translate(36.64453125,144.796875)"/>
<path d="M0 0 C0.87454834 0.00523682 1.74909668 0.01047363 2.65014648 0.01586914 C3.59438477 0.0190918 4.53862305 0.02231445 5.51147461 0.02563477 C6.50469727 0.03401367 7.49791992 0.04239258 8.52124023 0.05102539 C9.51833008 0.05553711 10.51541992 0.06004883 11.54272461 0.06469727 C14.01478872 0.07652532 16.48673541 0.0930069 18.95874023 0.11352539 C20.46030897 3.11666287 20.05155228 5.90420062 20.02124023 9.23852539 C20.0122168 10.51985352 20.00319336 11.80118164 19.99389648 13.12133789 C19.98229492 14.10875977 19.97069336 15.09618164 19.95874023 16.11352539 C21.7647168 16.09612305 21.7647168 16.09612305 23.60717773 16.07836914 C25.18269702 16.06899105 26.75821798 16.05989087 28.33374023 16.05102539 C29.12780273 16.04264648 29.92186523 16.03426758 30.73999023 16.02563477 C36.73217773 16.00024414 36.73217773 16.00024414 38.95874023 17.11352539 C39.58374023 20.17602539 39.58374023 20.17602539 39.95874023 23.11352539 C39.29874023 23.11352539 38.63874023 23.11352539 37.95874023 23.11352539 C37.95874023 21.46352539 37.95874023 19.81352539 37.95874023 18.11352539 C31.68874023 17.78352539 25.41874023 17.45352539 18.95874023 17.11352539 C18.62874023 11.83352539 18.29874023 6.55352539 17.95874023 1.11352539 C11.68874023 1.44352539 5.41874023 1.77352539 -1.04125977 2.11352539 C-0.71125977 4.75352539 -0.38125977 7.39352539 -0.04125977 10.11352539 C-0.70125977 10.11352539 -1.36125977 10.11352539 -2.04125977 10.11352539 C-2.04125977 12.42352539 -2.04125977 14.73352539 -2.04125977 17.11352539 C-6.00125977 17.11352539 -9.96125977 17.11352539 -14.04125977 17.11352539 C-14.04125977 18.10352539 -14.04125977 19.09352539 -14.04125977 20.11352539 C-14.70125977 20.11352539 -15.36125977 20.11352539 -16.04125977 20.11352539 C-15.71125977 21.10352539 -15.38125977 22.09352539 -15.04125977 23.11352539 C-15.12647717 25.01304885 -15.27855061 26.91016112 -15.47875977 28.80102539 C-15.5805957 29.79489258 -15.68243164 30.78875977 -15.78735352 31.81274414 C-15.87114258 32.57200195 -15.95493164 33.33125977 -16.04125977 34.11352539 C-16.37125977 34.11352539 -16.70125977 34.11352539 -17.04125977 34.11352539 C-17.09508083 31.4882535 -17.13484289 28.86407826 -17.16625977 26.23852539 C-17.18301758 25.4921582 -17.19977539 24.74579102 -17.21704102 23.97680664 C-17.23465566 22.02158078 -17.14446166 20.06610518 -17.04125977 18.11352539 C-15.04125977 16.11352539 -15.04125977 16.11352539 -12.22094727 15.91821289 C-11.13040039 15.94141602 -10.03985352 15.96461914 -8.91625977 15.98852539 C-7.82055664 16.00657227 -6.72485352 16.02461914 -5.59594727 16.04321289 C-4.75290039 16.06641602 -3.90985352 16.08961914 -3.04125977 16.11352539 C-3.05286133 15.04231445 -3.06446289 13.97110352 -3.07641602 12.86743164 C-3.08579275 11.47029796 -3.09489308 10.0731624 -3.10375977 8.67602539 C-3.11632812 7.61544922 -3.11632812 7.61544922 -3.12915039 6.53344727 C-3.13779564 4.7265898 -3.09345988 2.91964936 -3.04125977 1.11352539 C-2.04125977 0.11352539 -2.04125977 0.11352539 0 0 Z " fill="#171A5A" transform="translate(805.041259765625,115.886474609375)"/>
<path d="M0 0 C0.33 0 0.66 0 1 0 C1 3.3 1 6.6 1 10 C-5.01664358 12.00554786 -11.6579008 11 -18 11 C-17.67 23.21 -17.34 35.42 -17 48 C-20.62320706 44.37679294 -20.49755752 42.15551819 -20.58203125 37.33984375 C-20.6047258 36.59416641 -20.62742035 35.84848907 -20.65080261 35.08021545 C-20.69534731 33.50605213 -20.73271923 31.93167175 -20.76342773 30.35717773 C-20.81240264 27.94230076 -20.88787697 25.52929853 -20.96679688 23.11523438 C-21.00678627 21.58597795 -21.0452499 20.0566807 -21.08203125 18.52734375 C-21.10481644 17.80336899 -21.12760162 17.07939423 -21.15107727 16.33348083 C-21.17888046 14.55515812 -21.09838647 12.77581665 -21 11 C-19 9 -19 9 -17.02880859 8.77294922 C-16.24328613 8.78342285 -15.45776367 8.79389648 -14.6484375 8.8046875 C-13.79765625 8.81113281 -12.946875 8.81757813 -12.0703125 8.82421875 C-10.73613281 8.84935547 -10.73613281 8.84935547 -9.375 8.875 C-8.02921875 8.88853516 -8.02921875 8.88853516 -6.65625 8.90234375 C-4.43738678 8.92594868 -2.2186603 8.96182038 0 9 C0 6.03 0 3.06 0 0 Z " fill="#10175F" transform="translate(843,140)"/>
<path d="M0 0 C1.49682984 4.82311836 -0.44353133 8.330594 -2 13 C-2.66 13 -3.32 13 -4 13 C-4 20.26 -4 27.52 -4 35 C-6 34 -6 34 -6.60546875 32.34765625 C-8.62617497 20.32345388 -6.3630926 10.22835229 0 0 Z " fill="#15135F" transform="translate(405,147)"/>
<path d="M0 0 C4.62 0 9.24 0 14 0 C14 0.33 14 0.66 14 1 C13.07767578 1.05607422 13.07767578 1.05607422 12.13671875 1.11328125 C10.92435547 1.21189453 10.92435547 1.21189453 9.6875 1.3125 C8.88699219 1.37050781 8.08648438 1.42851562 7.26171875 1.48828125 C4.47626952 2.11849515 3.70356866 2.71758831 2 5 C1.52513424 7.88581617 1.52513424 7.88581617 1.56762695 11.21557617 C1.54783279 12.4966777 1.52803864 13.77777924 1.50764465 15.09770203 C1.50087486 16.49612278 1.49442799 17.89454512 1.48828125 19.29296875 C1.47143646 20.72359261 1.45328649 22.15420164 1.43388367 23.58479309 C1.38635518 27.34780242 1.35656459 31.11075169 1.33044434 34.8739624 C1.30065295 38.71492377 1.25411782 42.55567807 1.20898438 46.39648438 C1.122919 53.93088691 1.05558847 61.46530445 1 69 C0.67 69 0.34 69 0 69 C0 46.23 0 23.46 0 0 Z " fill="#04065A" transform="translate(705,134)"/>
<path d="M0 0 C0.33 0 0.66 0 1 0 C0.85831863 1.43791516 0.71148957 2.8753237 0.5625 4.3125 C0.48128906 5.11300781 0.40007813 5.91351563 0.31640625 6.73828125 C0 9 0 9 -1 12 C-1 14.64 -1 17.28 -1 20 C13.85 20 28.7 20 44 20 C40.36096512 21.81951744 39.35800881 22.24916476 35.59863281 22.22705078 C34.3077475 22.22682419 34.3077475 22.22682419 32.99078369 22.22659302 C32.07085632 22.21627045 31.15092896 22.20594788 30.203125 22.1953125 C29.25435486 22.1924826 28.30558472 22.18965271 27.32806396 22.18673706 C24.30191361 22.17555448 21.2760607 22.1504533 18.25 22.125 C16.19661886 22.11496772 14.14323308 22.1058423 12.08984375 22.09765625 C7.05978146 22.07562141 2.02994114 22.04110462 -3 22 C-4.0516392 17.4898077 -3.67479977 14.41129076 -2.625 9.875 C-2.34914063 8.65554687 -2.07328125 7.43609375 -1.7890625 6.1796875 C-1 3 -1 3 0 0 Z " fill="#7177D8" transform="translate(31,117)"/>
<path d="M0 0 C2.475 0.99 2.475 0.99 5 2 C4.84152588 2.79744629 4.68305176 3.59489258 4.51977539 4.41650391 C3.8927817 8.73919691 3.7699692 12.97396434 3.68359375 17.3359375 C3.66281265 18.21528961 3.64203156 19.09464172 3.62062073 20.00064087 C3.55557037 22.79201931 3.49644852 25.58348671 3.4375 28.375 C3.39427238 30.27474855 3.35065677 32.17448831 3.30664062 34.07421875 C3.19993499 38.71605614 3.09854385 43.35798246 3 48 C2.67 48 2.34 48 2 48 C2 33.48 2 18.96 2 4 C-2.29 4 -6.58 4 -11 4 C-11 3.67 -11 3.34 -11 3 C-5.555 2.505 -5.555 2.505 0 2 C0 1.34 0 0.68 0 0 Z " fill="#131255" transform="translate(800,147)"/>
<path d="M0 0 C0.33 0.66 0.66 1.32 1 2 C0.04956626 3.33897583 -0.91059147 4.67105427 -1.875 6 C-2.40867187 6.7425 -2.94234375 7.485 -3.4921875 8.25 C-3.98976563 8.8275 -4.48734375 9.405 -5 10 C-5.66 10 -6.32 10 -7 10 C-7.33 11.32 -7.66 12.64 -8 14 C-8.66 14 -9.32 14 -10 14 C-10.2475 14.61875 -10.495 15.2375 -10.75 15.875 C-12.20628639 18.35068687 -13.37812506 18.95125002 -16 20 C-13.12286326 11.77960932 -6.88340048 5.16255036 0 0 Z " fill="#6B78EF" transform="translate(54,84)"/>
<path d="M0 0 C0.66 0 1.32 0 2 0 C3.0716941 5.97189807 3.04760975 11.69272046 2.87890625 17.74609375 C2.85529526 18.75720718 2.83168427 19.76832062 2.80735779 20.81007385 C2.73117375 24.01937506 2.64695615 27.2284069 2.5625 30.4375 C2.50923395 32.62173189 2.45649391 34.80597668 2.40429688 36.99023438 C2.27562037 42.32698726 2.1403587 47.66354226 2 53 C1.67 53 1.34 53 1 53 C0.9845388 52.11130219 0.9845388 52.11130219 0.96876526 51.20465088 C0.86061542 45.04029494 0.74602421 38.87608265 0.62768555 32.71191406 C0.58436394 30.41116338 0.54268687 28.11038112 0.50268555 25.80957031 C0.44491605 22.50315839 0.38124051 19.196905 0.31640625 15.890625 C0.29969376 14.86132874 0.28298126 13.83203247 0.26576233 12.77154541 C0.24581711 11.81085144 0.22587189 10.85015747 0.20532227 9.86035156 C0.18977798 9.01651917 0.1742337 8.17268677 0.15821838 7.30328369 C0.06924278 4.98795205 0.06924278 4.98795205 -0.57533264 2.75872803 C-0.71547287 2.17834778 -0.8556131 1.59796753 -1 1 C-0.67 0.67 -0.34 0.34 0 0 Z " fill="#232059" transform="translate(753,155)"/>
<path d="M0 0 C-8.32114761 7.59756955 -19.55580956 6.32375791 -30 6 C-30 5.67 -30 5.34 -30 5 C-28.98679687 4.93941406 -27.97359375 4.87882813 -26.9296875 4.81640625 C-25.57811486 4.73193296 -24.22655291 4.64728843 -22.875 4.5625 C-21.87726562 4.50352539 -21.87726562 4.50352539 -20.859375 4.44335938 C-16.84981183 4.187848 -12.95005804 3.73217587 -9 3 C-9.33 2.01 -9.66 1.02 -10 0 C-6.22996568 -2.61002376 -4.07631429 -1.66758312 0 0 Z " fill="#081056" transform="translate(627,205)"/>
<path d="M0 0 C0.33 0 0.66 0 1 0 C1.06993164 0.63502441 1.13986328 1.27004883 1.21191406 1.92431641 C1.5411683 4.82672952 1.89534279 7.72558589 2.25 10.625 C2.41435547 12.12353516 2.41435547 12.12353516 2.58203125 13.65234375 C3.33155858 19.60911356 4.36660046 23.24054689 8 28 C8 28.99 8 29.98 8 31 C7.01 30.67 6.02 30.34 5 30 C3.8671875 27.70703125 3.8671875 27.70703125 2.875 24.8125 C2.54242187 23.87019531 2.20984375 22.92789063 1.8671875 21.95703125 C0.30213671 16.62034906 -0.11913789 11.67551312 -0.0625 6.125 C-0.05347656 4.97257813 -0.04445313 3.82015625 -0.03515625 2.6328125 C-0.02355469 1.76398438 -0.01195312 0.89515625 0 0 Z " fill="#161655" transform="translate(566,163)"/>
<path d="M0 0 C0.33 0 0.66 0 1 0 C1.41596639 11.69327731 1.41596639 11.69327731 -1 16 C-6.2846606 19.23550649 -10.91244985 19.37270715 -17 19 C-14.37083767 17.61499484 -11.83710592 16.61443071 -9 15.75 C-4.71233647 14.14512035 -2.98797261 12.21450194 -1 8 C-0.43036984 5.29790821 -0.19093244 2.76852045 0 0 Z " fill="#0C0E58" transform="translate(533,134)"/>
<path d="M0 0 C-9.45474214 3.8459968 -19.31710755 4.60293673 -29 1 C-29 0.67 -29 0.34 -29 0 C-28.31373535 0.00523682 -27.6274707 0.01047363 -26.92041016 0.01586914 C-23.82194936 0.03660956 -20.72350314 0.04965076 -17.625 0.0625 C-16.00464844 0.07506836 -16.00464844 0.07506836 -14.3515625 0.08789062 C-13.3203125 0.09111328 -12.2890625 0.09433594 -11.2265625 0.09765625 C-9.79691162 0.10551147 -9.79691162 0.10551147 -8.33837891 0.11352539 C-0.83572969 -0.25071891 -0.83572969 -0.25071891 0 0 Z " fill="#131759" transform="translate(842,208)"/>
<path d="M0 0 C5.75 1.875 5.75 1.875 8 3 C8 3.99 8 4.98 8 6 C9.98 6 11.96 6 14 6 C14 6.66 14 7.32 14 8 C15.32 8 16.64 8 18 8 C18 8.99 18 9.98 18 11 C18.66 11.33 19.32 11.66 20 12 C15.31688687 11.48119131 12.25090767 10.25268324 8.3125 7.6875 C6.91451172 6.79611328 6.91451172 6.79611328 5.48828125 5.88671875 C3.12587332 4.09544241 1.62307198 2.45903547 0 0 Z " fill="#090D57" transform="translate(318,198)"/>
<path d="M0 0 C3.23830695 3.23830695 2.36866885 7.15918856 2.375 11.5625 C2.39949219 12.43197266 2.42398437 13.30144531 2.44921875 14.19726562 C2.47801294 20.63276689 1.04195342 25.34610301 -2 31 C-2.66 30.67 -3.32 30.34 -4 30 C-3.79503906 29.40832031 -3.59007812 28.81664062 -3.37890625 28.20703125 C-3.10949219 27.41683594 -2.84007812 26.62664062 -2.5625 25.8125 C-2.29566406 25.03519531 -2.02882813 24.25789063 -1.75390625 23.45703125 C-0.12661517 18.15358001 0.12670541 13.21410426 0.0625 7.6875 C0.05798828 6.94693359 0.05347656 6.20636719 0.04882812 5.44335938 C0.03712175 3.62887101 0.01918898 1.81442466 0 0 Z " fill="#22205C" transform="translate(270,144)"/>
<path d="M0 0 C0 0.66 0 1.32 0 2 C-0.71115967 1.83701416 -1.42231934 1.67402832 -2.1550293 1.50610352 C-5.01560796 0.99722344 -7.61719358 0.88612957 -10.51953125 0.90234375 C-12.0519043 0.90717773 -12.0519043 0.90717773 -13.61523438 0.91210938 C-15.19788086 0.92467773 -15.19788086 0.92467773 -16.8125 0.9375 C-17.88693359 0.94201172 -18.96136719 0.94652344 -20.06835938 0.95117188 C-22.71229683 0.96292271 -25.35611952 0.97935213 -28 1 C-27.67 0.34 -27.34 -0.32 -27 -1 C-18.1949297 -3.37974873 -8.67426688 -2.31313784 0 0 Z " fill="#14185B" transform="translate(621,133)"/>
<path d="M0 0 C0.99 0.66 1.98 1.32 3 2 C1.64455078 2.05607422 1.64455078 2.05607422 0.26171875 2.11328125 C-0.91777344 2.17902344 -2.09726562 2.24476562 -3.3125 2.3125 C-4.48425781 2.37050781 -5.65601563 2.42851563 -6.86328125 2.48828125 C-10.18676139 3.03046792 -10.93174732 3.50337136 -13 6 C-13.66 6 -14.32 6 -15 6 C-15 6.66 -15 7.32 -15 8 C-15.66 8 -16.32 8 -17 8 C-16.11593727 5.02633445 -15.31696033 3.2872453 -13 1.1875 C-8.72295801 -0.50549579 -4.54946555 -0.59374381 0 0 Z " fill="#16185B" transform="translate(677,102)"/>
<path d="M0 0 C0.99 0.33 1.98 0.66 3 1 C2.67 4.3 2.34 7.6 2 11 C5.3 11.33 8.6 11.66 12 12 C11.67 12.66 11.34 13.32 11 14 C7.37 14 3.74 14 0 14 C0 9.38 0 4.76 0 0 Z " fill="#04085D" transform="translate(789,136)"/>
<path d="M0 0 C0.33 0 0.66 0 1 0 C0.67 2.31 0.34 4.62 0 7 C-0.99 7 -1.98 7 -3 7 C-2.938125 8.11375 -2.938125 8.11375 -2.875 9.25 C-3.04587253 13.00919563 -4.08487897 15.01448505 -6.625 17.75 C-7.07875 18.1625 -7.5325 18.575 -8 19 C-7.39811728 11.77740736 -4.82112797 5.50986054 0 0 Z " fill="#0F1059" transform="translate(575,143)"/>
<path d="M0 0 C8.85406634 -0.38558031 16.51168642 0.43056454 25 3 C23.3125 4.125 23.3125 4.125 21 5 C19.31781172 4.37352988 17.65331717 3.69911698 16 3 C12.71404284 2.69752696 9.47076065 2.53908273 6.17578125 2.43359375 C4.44627031 2.35482394 2.72141941 2.18473769 1 2 C0.67 1.34 0.34 0.68 0 0 Z " fill="#1A1E5E" transform="translate(342,131)"/>
<path d="M0 0 C0.38929688 0.433125 0.77859375 0.86625 1.1796875 1.3125 C4.68027409 4.79695486 7.09155299 6.4397192 12.125 6.5 C15.74109694 6.27950628 18.76284726 5.72648146 22 4 C20.96484375 5.97265625 20.96484375 5.97265625 19 8 C16.35464717 8.38220684 14.19430365 8.51572235 11.5625 8.4375 C10.24378906 8.43621094 8.92507813 8.43492187 7.56640625 8.43359375 C3.96790547 7.99609804 2.45777036 7.61332544 0 5 C-0.25 2.3125 -0.25 2.3125 0 0 Z " fill="#101857" transform="translate(336,182)"/>
<path d="M0 0 C0.33 0.66 0.66 1.32 1 2 C3.02463255 2.65213292 3.02463255 2.65213292 5 3 C2.30203592 4.61877845 0.57963193 5.04348635 -2.625 5.375 C-6.0848971 5.60697604 -6.0848971 5.60697604 -7.4375 8.0625 C-7.7159375 9.0215625 -7.7159375 9.0215625 -8 10 C-8.66 9.67 -9.32 9.34 -10 9 C-6.93906776 5.06451569 -4.50884026 2.31883213 0 0 Z " fill="#111360" transform="translate(416,137)"/>
<path d="M0 0 C2 1 2 1 2.61889648 2.80566406 C2.99326558 4.96122424 3.11421297 6.92388806 3.09765625 9.109375 C3.09443359 9.86347656 3.09121094 10.61757812 3.08789062 11.39453125 C3.07951172 12.17183594 3.07113281 12.94914063 3.0625 13.75 C3.05798828 14.54277344 3.05347656 15.33554688 3.04882812 16.15234375 C3.03708565 18.10159508 3.01915146 20.05080738 3 22 C2.34 22.33 1.68 22.66 1 23 C0.80551523 20.87562788 0.61961711 18.75046809 0.4375 16.625 C0.33308594 15.44164062 0.22867188 14.25828125 0.12109375 13.0390625 C0 10 0 10 1 8 C0.90276549 6.00978479 0.90276549 6.00978479 0.5625 3.875 C0.376875 2.59625 0.19125 1.3175 0 0 Z " fill="#19276D" transform="translate(643,157)"/>
<path d="M0 0 C0 3 0 3 -1.3125 4.38671875 C-2.875 5.59114583 -4.4375 6.79557292 -6 8 C-5.67 8.99 -5.34 9.98 -5 11 C-8.13349732 12.04449911 -8.98968256 11.93423645 -12 11 C-8.42270128 6.33867137 -4.89132699 3.26088466 0 0 Z " fill="#6672EE" transform="translate(125,148)"/>
<path d="M0 0 C0.33 0.66 0.66 1.32 1 2 C0.21654285 3.17219543 -0.57702836 4.33763668 -1.375 5.5 C-1.81585938 6.1496875 -2.25671875 6.799375 -2.7109375 7.46875 C-3.34902344 8.22671875 -3.34902344 8.22671875 -4 9 C-4.66 9 -5.32 9 -6 9 C-6 9.99 -6 10.98 -6 12 C-6.99 12 -7.98 12 -9 12 C-9 12.99 -9 13.98 -9 15 C-9.66 15 -10.32 15 -11 15 C-9.2645544 8.82952674 -4.42122925 4.42122925 0 0 Z " fill="#111256" transform="translate(323,138)"/>
<path d="M0 0 C0.56847656 0.32484375 1.13695312 0.6496875 1.72265625 0.984375 C6.30619097 3.02848997 11.38024307 2.52890022 16.0625 1 C16.701875 0.67 17.34125 0.34 18 0 C17.67 1.32 17.34 2.64 17 4 C11.90932321 5.69689226 6.84029544 5.84346874 2 3.625 C1.34 3.08875 0.68 2.5525 0 2 C0 1.34 0 0.68 0 0 Z " fill="#14195E" transform="translate(597,186)"/>
<path d="M0 0 C1.86754566 3.73509132 0.94896004 8.31910264 0.83984375 12.421875 C0.99986529 15.99699039 1.70304132 18.68385467 3 22 C1.68 21.67 0.36 21.34 -1 21 C-1.22354724 18.62556577 -1.429163 16.25174905 -1.625 13.875 C-1.72167969 12.87726563 -1.72167969 12.87726563 -1.8203125 11.859375 C-2.16909098 7.41244943 -1.68247185 4.12269819 0 0 Z " fill="#0A1763" transform="translate(590,160)"/>
<path d="M0 0 C0.66 0 1.32 0 2 0 C2.33 5.61 2.66 11.22 3 17 C2.01 17 1.02 17 0 17 C-0.33 18.65 -0.66 20.3 -1 22 C-2.32 22.33 -3.64 22.66 -5 23 C-4.6390625 22.42894531 -4.278125 21.85789063 -3.90625 21.26953125 C0.20902633 14.07922899 0.57679986 8.17774024 0 0 Z " fill="#1F215B" transform="translate(620,163)"/>
<path d="M0 0 C1.65 0.66 3.3 1.32 5 2 C2.38809945 4.61190055 0.43269626 4.92601024 -3.19824219 5.11352539 C-3.97329102 5.10828857 -4.74833984 5.10305176 -5.546875 5.09765625 C-6.39121094 5.09443359 -7.23554687 5.09121094 -8.10546875 5.08789062 C-8.97816406 5.07951172 -9.85085938 5.07113281 -10.75 5.0625 C-12.08224609 5.05573242 -12.08224609 5.05573242 -13.44140625 5.04882812 C-15.62767329 5.037074 -17.81380179 5.02064249 -20 5 C-20 4.67 -20 4.34 -20 4 C-10.1 3.505 -10.1 3.505 0 3 C0 2.01 0 1.02 0 0 Z " fill="#0D1251" transform="translate(531,170)"/>
<path d="M0 0 C2.475 0.495 2.475 0.495 5 1 C5 6.28 5 11.56 5 17 C4.67 17 4.34 17 4 17 C3.69255859 15.53626953 3.69255859 15.53626953 3.37890625 14.04296875 C3.10949219 12.77066406 2.84007812 11.49835938 2.5625 10.1875 C2.29566406 8.92292969 2.02882813 7.65835938 1.75390625 6.35546875 C1.06572114 3.02954587 1.06572114 3.02954587 0 0 Z " fill="#0D0D57" transform="translate(360,156)"/>
<path d="M0 0 C0 0.99 0 1.98 0 3 C-1.06927734 2.93039063 -1.06927734 2.93039063 -2.16015625 2.859375 C-8.78254156 2.60981001 -12.5768349 3.14352704 -18 7 C-17.34 5.02 -16.68 3.04 -16 1 C-10.61509359 0.08342019 -5.45769811 -0.11138159 0 0 Z " fill="#171C62" transform="translate(748,149)"/>
<path d="M0 0 C0.99 0.495 0.99 0.495 2 1 C3.35149097 7.62230573 3.64834046 14.40663815 2 21 C1.67 21 1.34 21 1 21 C1.03255208 19.01432292 1.06510417 17.02864583 1.09765625 15.04296875 C1.08263217 12.79694539 1.08263217 12.79694539 0 10 C-0.06802967 8.27204648 -0.08495645 6.54164635 -0.0625 4.8125 C-0.05347656 3.91144531 -0.04445313 3.01039063 -0.03515625 2.08203125 C-0.02355469 1.39496094 -0.01195312 0.70789063 0 0 Z " fill="#19236C" transform="translate(386,159)"/>
<path d="M0 0 C2.02532424 1.01266212 4.04949131 2.02549552 6.0625 3.0625 C8.13410175 4.11611949 8.13410175 4.11611949 11 5 C11 5.66 11 6.32 11 7 C8.875 7.875 8.875 7.875 6 8 C3.64424838 6.30628631 1.72018294 4.33495622 0 2 C0 1.34 0 0.68 0 0 Z " fill="#0F125E" transform="translate(805,200)"/>
<path d="M0 0 C2.64 0 5.28 0 8 0 C5.14723863 2.93200474 2.34920216 5.64315404 -1 8 C-1.66 7.67 -2.32 7.34 -3 7 C-1.625 5 -1.625 5 0 3 C0.66 3 1.32 3 2 3 C2 2.34 2 1.68 2 1 C1.34 0.67 0.68 0.34 0 0 Z " fill="#0A105C" transform="translate(275,196)"/>
<path d="M0 0 C1.18414294 3.55242882 0.69535532 4.69830562 -0.4375 8.1875 C-0.72496094 9.08855469 -1.01242188 9.98960938 -1.30859375 10.91796875 C-1.53675781 11.60503906 -1.76492187 12.29210937 -2 13 C-2.99 13 -3.98 13 -5 13 C-4.39254603 8.14036821 -2.27241033 4.2594482 0 0 Z " fill="#6973E9" transform="translate(37,104)"/>
<path d="M0 0 C2.78211944 0.37596209 4.5879284 0.67318459 6.8125 2.4375 C8 4 8 4 8 6 C10.97 6.495 10.97 6.495 14 7 C14 7.66 14 8.32 14 9 C7.99909408 7.77532532 4.2499944 5.43084522 0 1 C0 0.67 0 0.34 0 0 Z " fill="#737DE9" transform="translate(32,209)"/>
<path d="M0 0 C0.66 0.33 1.32 0.66 2 1 C-0.31 5.62 -2.62 10.24 -5 15 C-5.33 13.68 -5.66 12.36 -6 11 C-5.34 10.67 -4.68 10.34 -4 10 C-4 9.01 -4 8.02 -4 7 C-3.34 7 -2.68 7 -2 7 C-2 5.35 -2 3.7 -2 2 C-1.34 2 -0.68 2 0 2 C0 1.34 0 0.68 0 0 Z " fill="#0E165F" transform="translate(293,176)"/>
<path d="M0 0 C5.31954226 3.1138784 9.35122113 7.01261586 13 12 C13 12.66 13 13.32 13 14 C12.01 14 11.02 14 10 14 C9.649375 13.13375 9.29875 12.2675 8.9375 11.375 C6.84191313 7.72462287 4.71035844 5.82661147 1.42578125 3.296875 C0.95527344 2.86890625 0.48476562 2.4409375 0 2 C0 1.34 0 0.68 0 0 Z " fill="#6B74DA" transform="translate(83,150)"/>
<path d="M0 0 C9.41581259 3.19180088 9.41581259 3.19180088 13 7 C13.3125 9.75 13.3125 9.75 13 12 C11 10.1875 11 10.1875 9 8 C9 7.01 9 6.02 9 5 C8.443125 4.87625 7.88625 4.7525 7.3125 4.625 C4.77885636 3.94023145 2.42078968 3.00866237 0 2 C0 1.34 0 0.68 0 0 Z " fill="#11185B" transform="translate(454,132)"/>
<path d="M0 0 C5.62775683 3.1799558 10.70024145 6.12694031 15 11 C10.10409172 10.58035072 8.33606781 8.42160801 5 5 C2.82653432 4.13880866 2.82653432 4.13880866 1 4 C0.67 2.68 0.34 1.36 0 0 Z " fill="#6D7AE4" transform="translate(139,75)"/>
<path d="M0 0 C2.52588702 2.36292656 3.88820837 3.66462511 5 7 C5.06937062 9.22818441 5.08457084 11.45834524 5.0625 13.6875 C5.05347656 14.86699219 5.04445313 16.04648438 5.03515625 17.26171875 C5.02355469 18.16535156 5.01195312 19.06898438 5 20 C4.67 20 4.34 20 4 20 C3.96261719 19.31035156 3.92523438 18.62070313 3.88671875 17.91015625 C3.43921852 11.51353535 2.34350199 5.96929752 0 0 Z " fill="#0B0C5D" transform="translate(268,137)"/>
<path d="M0 0 C3.42409111 3.06679465 5.27342685 6.11716523 7.25 10.25 C7.77078125 11.32765625 8.2915625 12.4053125 8.828125 13.515625 C9.21484375 14.33546875 9.6015625 15.1553125 10 16 C9.34 16 8.68 16 8 16 C7.67 14.68 7.34 13.36 7 12 C6.34 12 5.68 12 5 12 C4.16180842 10.37750059 3.3295884 8.75191503 2.5 7.125 C2.0359375 6.22007813 1.571875 5.31515625 1.09375 4.3828125 C0 2 0 2 0 0 Z " fill="#7783E8" transform="translate(163,96)"/>
<path d="M0 0 C-1.36983503 3.16115776 -1.9890638 3.9927092 -5 6 C-8.1875 6.125 -8.1875 6.125 -11 6 C-8.24029211 2.78034079 -4.3526723 0 0 0 Z " fill="#6870ED" transform="translate(73,73)"/>
<path d="M0 0 C4.95745654 2.89082453 9.11973109 5.75595588 13 10 C12.67 10.66 12.34 11.32 12 12 C8.24890752 10.0257408 6.85399066 8.70798132 5 5 C3.34738161 3.97695052 1.68208635 2.97383946 0 2 C0 1.34 0 0.68 0 0 Z " fill="#192263" transform="translate(626,135)"/>
<path d="M0 0 C1.62463842 -0.05395478 3.24978541 -0.09277195 4.875 -0.125 C5.77992188 -0.14820313 6.68484375 -0.17140625 7.6171875 -0.1953125 C10 0 10 0 12 2 C6.06 2.495 6.06 2.495 0 3 C0 2.01 0 1.02 0 0 Z " fill="#080C53" transform="translate(234,187)"/>
<path d="M0 0 C5.29158974 1.40071493 7.77478044 4.85487245 11 9 C10.401875 8.690625 9.80375 8.38125 9.1875 8.0625 C6.91043228 6.89790296 6.91043228 6.89790296 4 6 C4 5.01 4 4.02 4 3 C1.03 2.505 1.03 2.505 -2 2 C-1.34 1.34 -0.68 0.68 0 0 Z " fill="#101862" transform="translate(542,107)"/>
<path d="M0 0 C1.32 1.65 2.64 3.3 4 5 C3.67 5.66 3.34 6.32 3 7 C3.99 7 4.98 7 6 7 C6 8.65 6 10.3 6 12 C2.92307943 9.23077149 1.22199993 6.97149976 0 3 C0 2.01 0 1.02 0 0 Z " fill="#0E0F57" transform="translate(311,184)"/>
<path d="M0 0 C0.93423645 3.01031744 1.04449911 3.86650268 0 7 C-0.66 7 -1.32 7 -2 7 C-2 8.32 -2 9.64 -2 11 C-2.99 11 -3.98 11 -5 11 C-3.77472971 6.94718288 -2.30119506 3.55639236 0 0 Z " fill="#191759" transform="translate(405,147)"/>
<path d="M0 0 C0.99 0.99 1.98 1.98 3 3 C0.03 5.475 0.03 5.475 -3 8 C-3.99 7.34 -4.98 6.68 -6 6 C-6 5.34 -6 4.68 -6 4 C-2.25 2.875 -2.25 2.875 0 4 C0 2.68 0 1.36 0 0 Z " fill="#6677EE" transform="translate(85,128)"/>
<path d="M0 0 C1.9375 1.0625 1.9375 1.0625 4 3 C4.75 6.6875 4.75 6.6875 5 10 C4.01 10.495 4.01 10.495 3 11 C2.49632243 9.54293274 1.99717444 8.08429904 1.5 6.625 C1.2215625 5.81289062 0.943125 5.00078125 0.65625 4.1640625 C0 2 0 2 0 0 Z " fill="#2C3677" transform="translate(680,104)"/>
<path d="M0 0 C2.31 0.66 4.62 1.32 7 2 C7 2.99 7 3.98 7 5 C4.36 4.67 1.72 4.34 -1 4 C-1 1 -1 1 0 0 Z " fill="#0B1061" transform="translate(349,148)"/>
<path d="M0 0 C-3 2 -3 2 -5 2 C-5.66 3.32 -6.32 4.64 -7 6 C-7.66 6 -8.32 6 -9 6 C-9 5.34 -9 4.68 -9 4 C-9.66 3.67 -10.32 3.34 -11 3 C-7.14243493 0.84694043 -4.44870215 -0.39253254 0 0 Z " fill="#2A2C71" transform="translate(335,134)"/>
<path d="M0 0 C-0.33 1.65 -0.66 3.3 -1 5 C-3.9375 4.625 -3.9375 4.625 -7 4 C-7.33 3.34 -7.66 2.68 -8 2 C-2.25 0 -2.25 0 0 0 Z " fill="#1A2060" transform="translate(463,152)"/>
<path d="M0 0 C5.53846154 0.49230769 5.53846154 0.49230769 7.875 3.0625 C8.431875 4.0215625 8.431875 4.0215625 9 5 C8.67 5.66 8.34 6.32 8 7 C2.25 3.375 2.25 3.375 0 0 Z " fill="#0E1158" transform="translate(411,200)"/>
<path d="M0 0 C1.4370809 -0.05422947 2.87475462 -0.09289723 4.3125 -0.125 C5.11300781 -0.14820312 5.91351562 -0.17140625 6.73828125 -0.1953125 C9 0 9 0 12 2 C7.31034294 3.11658501 4.46236469 2.80619523 0 1 C0 0.67 0 0.34 0 0 Z " fill="#1C205D" transform="translate(665,121)"/>
<path d="M0 0 C1.46911544 3.81970016 0.52561108 6.30641529 -1 10 C-1.66 10.66 -2.32 11.32 -3 12 C-2.49202991 7.6822542 -1.80317221 3.96697886 0 0 Z " fill="#1E1F55" transform="translate(570,150)"/>
<path d="M0 0 C0.99 0.33 1.98 0.66 3 1 C2.67 3.97 2.34 6.94 2 10 C1.34 9.67 0.68 9.34 0 9 C0 6.03 0 3.06 0 0 Z " fill="#0F0E50" transform="translate(509,153)"/>
<path d="M0 0 C0.33 0 0.66 0 1 0 C1.08153933 1.58246707 1.13943557 3.16616273 1.1875 4.75 C1.22230469 5.63171875 1.25710938 6.5134375 1.29296875 7.421875 C0.94923684 10.44671583 -0.00227459 11.75583602 -2 14 C-2 10.6325319 -1.68568426 8.00700022 -1 4.75 C-0.814375 3.85796875 -0.62875 2.9659375 -0.4375 2.046875 C-0.2209375 1.03367188 -0.2209375 1.03367188 0 0 Z " fill="#22235D" transform="translate(533,134)"/>
<path d="M0 0 C4.21912747 0.4794463 6.79663178 1.16625119 10 4 C8.02 4.33 6.04 4.66 4 5 C2.68 3.35 1.36 1.7 0 0 Z " fill="#6D79ED" transform="translate(128,71)"/>
<path d="M0 0 C0.66 0 1.32 0 2 0 C2.33 2.31 2.66 4.62 3 7 C2.34 7 1.68 7 1 7 C0.34 5.02 -0.32 3.04 -1 1 C-0.67 0.67 -0.34 0.34 0 0 Z " fill="#26276C" transform="translate(753,155)"/>
<path d="M0 0 C1.06126775 4.24507101 1.08878929 5.31975221 -1 9 C-2.32 9.33 -3.64 9.66 -5 10 C-3.35 6.7 -1.7 3.4 0 0 Z " fill="#12144F" transform="translate(620,176)"/>
<path d="M0 0 C0 3 0 3 -1.75 5.25 C-2.86375 6.11625 -2.86375 6.11625 -4 7 C-5.32 6.67 -6.64 6.34 -8 6 C-5.36 4.02 -2.72 2.04 0 0 Z " fill="#6E7CEA" transform="translate(125,148)"/>
<path d="M0 0 C-1.28062485 1.7074998 -2.61767557 3.37373596 -4 5 C-4.66 5 -5.32 5 -6 5 C-6 3.35 -6 1.7 -6 0 C-2.25 -1.125 -2.25 -1.125 0 0 Z " fill="#08125B" transform="translate(338,155)"/>
<path d="M0 0 C-3.37097383 1.49821059 -5.20442119 2 -9 2 C-9 1.34 -9 0.68 -9 0 C-5.62182575 -0.84454356 -3.32534757 -1.10844919 0 0 Z " fill="#050A5C" transform="translate(743,134)"/>
</svg>
